<?xml version="1.0" encoding="UTF-8" standalone="no"?>
<!-- Created with Inkscape (http://www.inkscape.org/) -->

<svg
   width="104.45023mm"
   height="95.536102mm"
   viewBox="0 0 104.45023 95.536102"
   version="1.1"
   id="svg1"
   xml:space="preserve"
   inkscape:version="1.4 (e7c3feb100, 2024-10-09)"
   sodipodi:docname="brunsviga13r_schema.svg"
   xmlns:inkscape="http://www.inkscape.org/namespaces/inkscape"
   xmlns:sodipodi="http://sodipodi.sourceforge.net/DTD/sodipodi-0.dtd"
   xmlns="http://www.w3.org/2000/svg"
   xmlns:svg="http://www.w3.org/2000/svg"><sodipodi:namedview
     id="namedview1"
     pagecolor="#505050"
     bordercolor="#ffffff"
     borderopacity="1"
     inkscape:showpageshadow="0"
     inkscape:pageopacity="0"
     inkscape:pagecheckerboard="1"
     inkscape:deskcolor="#505050"
     inkscape:document-units="mm"
     showgrid="false"
     inkscape:zoom="1.9670034"
     inkscape:cx="236.6544"
     inkscape:cy="164.97176"
     inkscape:current-layer="layer1"><inkscape:grid
       id="grid32"
       units="mm"
       originx="3.5572781e-07"
       originy="3.4440863e-07"
       spacingx="0.99999998"
       spacingy="1"
       empcolor="#0099e5"
       empopacity="0.30196078"
       color="#0099e5"
       opacity="0.14901961"
       empspacing="5"
       enabled="true"
       visible="false" /></sodipodi:namedview><defs
     id="defs1" /><g
     inkscape:label="Layer 1"
     inkscape:groupmode="layer"
     id="layer1"><path
       style="fill:none;stroke:#000000;stroke-width:1;stroke-linecap:round;stroke-dasharray:none;stroke-opacity:1"
       d="m 6.2425433,55.372252 c 0,0 -1.7425203,2.559429 -2.2805653,4.913379 -0.349857,1.53062 -2.421196,7.02819 -2.421196,7.02819 0,0 -1.935227,3.87882 -0.538043,9.28125 l 1.008832,3.90081 c 0,0 0.595175,1.87528 3.39429,2.65817 l 12.412318,3.47164"
       id="path1"
       sodipodi:nodetypes="cscscsc" /><path
       style="fill:none;stroke:#000000;stroke-width:1;stroke-dasharray:none;stroke-opacity:1;stroke-linecap:round"
       d="m 29.041579,89.954671 16.889907,4.52563 c 0,0 3.702174,1.94209 3.702174,-1.43444 0,-3.37653 -0.237783,-5.70681 -0.237783,-5.70681 0,0 -0.760907,-5.04102 1.093806,-8.94068 1.854716,-3.89965 2.837783,-5.805 2.972295,-8.25982 0.134511,-2.45483 0.134511,-2.72385 0.706183,-3.76631"
       id="path2" /><path
       style="fill:none;stroke:#000000;stroke-width:1;stroke-dasharray:none;stroke-opacity:1"
       d="m 72.158989,15.325369 -8.115626,23.648442 c 0,0 -2.282724,5.08857 -4.803232,8.51266 -2.520511,3.42409 -2.853407,10.41493 -2.900966,13.17323 -0.04756,2.75829 -0.190225,2.42539 -0.808463,3.61431 -0.618239,1.18892 -2.068719,3.23386 -4.803236,2.44918 -2.734513,-0.78469 -9.226012,-2.33029 -9.226012,-2.33029 0,0 0.951134,-2.04494 -0.570683,-2.44917 -1.521817,-0.40423 -2.021162,1.37915 -2.021162,1.37915 l -31.41672,-7.20709 c 0,0 -2.185803,-0.0673 -0.941576,-2.82473 1.244225,-2.75747 1.7836929,-4.334075 1.8158952,-6.523774 0.067257,-4.573378 1.1769718,-9.045856 4.0016998,-12.005096 2.824729,-2.95924 4.102582,-3.59817 5.279552,-6.86005 1.176969,-3.261894 6.422892,-18.697016 7.801631,-21.387233 1.378735,-2.690217 2.757471,-6.389267 7.498979,-5.985735 4.741508,0.403532 38.90727,6.355638 40.487772,6.893682 1.580505,0.538043 2.118545,0.672555 1.143345,2.488451 -0.97521,1.815896 -2.421198,5.414063 -2.421198,5.414063 z"
       id="path3"
       sodipodi:nodetypes="ccsssscscccsssssssc" /><path
       style="fill:none;stroke:#000000;stroke-width:1;stroke-dasharray:none;stroke-opacity:1"
       d="m 18.755106,24.753327 -2.788031,-0.583869 c 0,0 -0.706184,-1.412364 -0.134512,-2.387568 0.571672,-0.975204 1.345108,-1.143341 1.345108,-1.143341 l 2.898888,0.326929"
       id="path4" /><path
       style="fill:none;stroke:#000000;stroke-width:1;stroke-dasharray:none;stroke-opacity:1"
       d="m 32.608337,9.726394 c 0,0 25.014862,5.088575 26.394008,5.373915 1.379148,0.28534 2.996078,0.475567 2.140055,2.663179 -0.856022,2.187612 -1.640707,1.90227 -3.37653,1.545596 -1.735823,-0.356677 -26.798243,-5.421474 -26.798243,-5.421474 0,0 -1.878489,-0.475566 -1.070026,-2.520508 0.77635,-1.963715 2.710736,-1.640708 2.710736,-1.640708 z"
       id="path5"
       sodipodi:nodetypes="cssscsc" /><path
       style="fill:none;stroke:#000000;stroke-width:1;stroke-dasharray:none;stroke-opacity:1"
       d="m 31.635264,26.463751 c 0,0 20.301803,4.12984 21.421104,4.36142 1.119302,0.23158 2.431586,0.38596 1.736847,2.16141 -0.694739,1.77544 -1.331581,1.54386 -2.740357,1.25439 -1.408776,-0.28948 -21.749177,-4.40001 -21.749177,-4.40001 0,0 -1.524562,-0.38597 -0.868422,-2.04562 0.630078,-1.59374 2.200005,-1.33159 2.200005,-1.33159 z"
       id="path6"
       sodipodi:nodetypes="cssscsc" /><path
       style="fill:none;stroke:#000000;stroke-width:1;stroke-dasharray:none;stroke-opacity:1"
       d="m 15.496286,61.025441 24.985392,6.15387 c 0,0 1.733127,0.44745 1.114888,1.70771 -0.763419,1.5562 -0.986802,2.00928 -2.877185,1.4267 -2.343302,-0.72216 -23.469266,-5.96837 -23.469266,-5.96837 0,0 -2.033054,-0.29723 -1.712045,-1.8785 0.404522,-1.99265 1.958216,-1.44141 1.958216,-1.44141 z"
       id="path7"
       sodipodi:nodetypes="ccsscsc" /><path
       style="fill:none;stroke:#000000;stroke-width:1;stroke-linecap:round;stroke-dasharray:none;stroke-opacity:1"
       d="m 30.278054,34.408361 c 0,0 -5.291992,7.16394 -6.031802,11.50191 -1.084748,6.36058 -0.02507,7.01392 -1.126529,8.40693"
       id="path8"
       sodipodi:nodetypes="csc" /><path
       style="fill:none;stroke:#000000;stroke-width:1;stroke-linecap:round;stroke-dasharray:none;stroke-opacity:1"
       d="m 32.295717,35.060771 c 0,0 -5.291992,7.16394 -6.031802,11.50191 -1.084748,6.36058 -0.02507,7.01392 -1.126529,8.40693"
       id="path9"
       sodipodi:nodetypes="csc" /><path
       style="fill:none;stroke:#000000;stroke-width:1;stroke-linecap:round;stroke-dasharray:none;stroke-opacity:1"
       d="m 34.414263,35.565191 c 0,0 -5.291992,7.16394 -6.031802,11.50191 -1.084748,6.36058 -0.02507,7.01392 -1.126529,8.40693"
       id="path10"
       sodipodi:nodetypes="csc" /><path
       style="fill:none;stroke:#000000;stroke-width:1;stroke-linecap:round;stroke-dasharray:none;stroke-opacity:1"
       d="m 36.566437,36.204121 c 0,0 -5.291992,7.16394 -6.031802,11.50191 -1.084748,6.36058 -0.02507,7.01392 -1.126529,8.40693"
       id="path11"
       sodipodi:nodetypes="csc" /><path
       style="fill:none;stroke:#000000;stroke-width:1;stroke-linecap:round;stroke-dasharray:none;stroke-opacity:1"
       d="m 38.651355,36.708541 c 0,0 -5.291992,7.16394 -6.031802,11.50191 -1.084748,6.36058 -0.02507,7.01392 -1.126529,8.40693"
       id="path12"
       sodipodi:nodetypes="csc" /><path
       style="fill:none;stroke:#000000;stroke-width:1;stroke-linecap:round;stroke-dasharray:none;stroke-opacity:1"
       d="m 40.837157,37.212961 c 0,0 -5.291992,7.16394 -6.031802,11.50191 -1.084748,6.36058 -0.02507,7.01392 -1.126529,8.40693"
       id="path13"
       sodipodi:nodetypes="csc" /><path
       style="fill:none;stroke:#000000;stroke-width:1;stroke-linecap:round;stroke-dasharray:none;stroke-opacity:1"
       d="m 43.022959,37.717381 c 0,0 -5.291992,7.16394 -6.031802,11.50191 -1.084748,6.36058 -0.02507,7.01392 -1.126529,8.40693"
       id="path14"
       sodipodi:nodetypes="csc" /><path
       style="fill:none;stroke:#000000;stroke-width:1;stroke-linecap:round;stroke-dasharray:none;stroke-opacity:1"
       d="m 45.276016,38.322681 c 0,0 -5.291992,7.16394 -6.031802,11.50191 -1.084748,6.36058 -0.02507,7.01392 -1.126529,8.40693"
       id="path15"
       sodipodi:nodetypes="csc" /><path
       style="fill:none;stroke:#000000;stroke-width:1;stroke-linecap:round;stroke-dasharray:none;stroke-opacity:1"
       d="m 47.422421,38.807401 c 0,0 -5.291992,7.16394 -6.031802,11.50191 -1.084748,6.36058 -0.02507,7.01392 -1.126529,8.40693"
       id="path16"
       sodipodi:nodetypes="csc" /><path
       style="fill:none;stroke:#000000;stroke-width:1;stroke-linecap:round;stroke-dasharray:none;stroke-opacity:1"
       d="m 49.514919,39.473191 c 0,0 -5.291992,7.16394 -6.031802,11.50191 -1.084748,6.36058 -0.02507,7.01392 -1.126529,8.40693"
       id="path17"
       sodipodi:nodetypes="csc" /><path
       style="fill:none;stroke:#000000;stroke-width:1;stroke-linecap:round;stroke-linejoin:round;stroke-dasharray:none;stroke-opacity:1"
       d="m 76.396077,18.923535 c 0,0 -0.87432,0.807064 -0.7398,2.253057 0.1345,1.445993 0.87432,1.815896 0.87432,1.815896 l 5.14504,0.941576 c 0,0 -0.67494,-0.953815 -0.40592,-2.063527 0.26902,-1.109716 1.54926,-1.669149 1.54926,-1.669149 z"
       id="path18"
       sodipodi:nodetypes="csccscc" /><path
       style="fill:#000000;fill-opacity:1;stroke:#000000;stroke-width:1;stroke-linecap:round;stroke-linejoin:round;stroke-dasharray:none;stroke-opacity:1"
       d="m 81.675637,23.934064 c 0,0 1.37908,-0.219874 1.54687,-1.361922 0.21103,-1.436343 -0.40353,-2.370756 -0.40353,-2.370756 l -1.54926,1.669151 z"
       id="path19"
       sodipodi:nodetypes="csc" /><path
       style="fill:none;fill-opacity:1;stroke:#000000;stroke-width:1;stroke-linecap:round;stroke-linejoin:round;stroke-dasharray:none;stroke-opacity:1"
       d="m 75.045367,8.367378 c 0,0 1.88876,-0.372851 1.88876,1.880205 0,2.253057 0.0336,7.061822 0.0336,7.061822"
       id="path20" /><path
       style="fill:none;fill-opacity:1;stroke:#000000;stroke-width:1;stroke-linecap:round;stroke-linejoin:round;stroke-dasharray:none;stroke-opacity:1"
       d="m 76.934127,27.263211 0.13451,22.29517 c 0,0 0.0822,2.33256 -0.57167,3.12738 -0.98481,1.19714 -1.29278,1.88554 -1.29278,1.88554"
       id="path21"
       sodipodi:nodetypes="ccsc" /><path
       style="fill:none;fill-opacity:1;stroke:#000000;stroke-width:0.75;stroke-linecap:round;stroke-linejoin:round;stroke-dasharray:none;stroke-opacity:1"
       d="m 76.37506,18.789022 -1.48802,-0.290037 c 0,0 -1.71345,3.787612 -2.148921,6.487388 -0.281731,1.746637 -0.545502,7.320998 -1.251685,9.910328 -0.706181,2.58933 -1.44599,4.64062 -0.470787,5.54857 0.975204,0.90795 2.1858,0.47079 2.65659,-0.47078 0.47079,-0.94158 1.27785,-4.90965 1.41236,-7.36448 0.13451,-2.45482 0.33628,-3.5309 0.70618,-6.05298 0.36991,-2.522084 0.73982,-3.564545 0.73982,-3.564545"
       id="path22"
       sodipodi:nodetypes="ccssssssc" /><path
       style="fill:none;fill-opacity:1;stroke:#000000;stroke-width:0.75;stroke-linecap:round;stroke-linejoin:round;stroke-dasharray:none;stroke-opacity:1"
       d="m 72.12536,39.268301 c 0,0 1.042461,-4.13621 1.378737,-7.93614 0.33628,-3.79993 0.67255,-6.792797 1.41236,-8.474184 0.73982,-1.681388 0.73982,-1.681388 0.73982,-1.681388"
       id="path23" /><path
       style="fill:none;stroke:#000000;stroke-width:1;stroke-linecap:round;stroke-linejoin:round;stroke-dasharray:none;stroke-opacity:1"
       d="m 64.693631,47.305331 c 0,0 -0.87432,0.80706 -0.7398,2.25305 0.1345,1.446 0.87432,1.8159 0.87432,1.8159 l 5.14504,0.94158 c 0,0 -0.67494,-0.95382 -0.40592,-2.06353 0.26902,-1.10972 1.54926,-1.66915 1.54926,-1.66915 z"
       id="path24"
       sodipodi:nodetypes="csccscc" /><path
       style="fill:#000000;fill-opacity:1;stroke:#000000;stroke-width:1;stroke-linecap:round;stroke-linejoin:round;stroke-dasharray:none;stroke-opacity:1"
       d="m 69.973191,52.315861 c 0,0 1.37908,-0.21988 1.54687,-1.36193 0.21103,-1.43634 -0.40353,-2.37075 -0.40353,-2.37075 l -1.54926,1.66915 z"
       id="path25"
       sodipodi:nodetypes="csc" /><path
       style="fill:none;fill-opacity:1;stroke:#000000;stroke-width:0.750001;stroke-linecap:round;stroke-linejoin:round;stroke-dasharray:none;stroke-opacity:1"
       d="m 64.677224,47.173705 -1.322006,-0.248149 c 0,0 -2.622996,3.123037 -3.383903,7.783597 -0.760907,4.66057 -1.313756,9.39841 -1.456427,11.91892 -0.142668,2.52051 -0.143263,2.3131 -0.143263,2.3131"
       id="path26"
       sodipodi:nodetypes="ccssc" /><path
       style="fill:none;fill-opacity:1;stroke:#000000;stroke-width:0.750001;stroke-linecap:round;stroke-linejoin:round;stroke-dasharray:none;stroke-opacity:1"
       d="m 61.176654,69.256071 c 0,0 0.369833,-6.49804 0.961275,-10.48369 0.540057,-3.63938 0.701546,-5.31683 2.161313,-7.98631"
       id="path27"
       sodipodi:nodetypes="csc" /><path
       style="fill:none;fill-opacity:1;stroke:#000000;stroke-width:0.75;stroke-linecap:round;stroke-linejoin:round;stroke-dasharray:none;stroke-opacity:1"
       d="m 63.982562,48.748191 c 0,0 -2.83334,3.39296 -3.508011,12.06563 -0.491683,6.32042 -0.664744,7.49892 -0.664744,7.49892"
       id="path28"
       sodipodi:nodetypes="csc" /><path
       style="fill:none;stroke:#000000;stroke-width:1;stroke-linecap:round;stroke-linejoin:round;stroke-dasharray:none;stroke-opacity:1"
       d="m 58.145846,70.172851 c 0,0 -0.87432,0.80706 -0.7398,2.25305 0.1345,1.446 0.87432,1.8159 0.87432,1.8159 l 5.14504,0.94158 c 0,0 -0.67494,-0.95382 -0.40592,-2.06353 0.26902,-1.10972 1.54926,-1.66915 1.54926,-1.66915 z"
       id="path29"
       sodipodi:nodetypes="csccscc" /><path
       style="fill:none;fill-opacity:1;stroke:#000000;stroke-width:1;stroke-linecap:round;stroke-linejoin:round;stroke-dasharray:none;stroke-opacity:1"
       d="m 63.425406,75.183381 c 0,0 1.37908,-0.21988 1.54687,-1.36193 0.21103,-1.43634 -0.40353,-2.37075 -0.40353,-2.37075"
       id="path30"
       sodipodi:nodetypes="csc" /><path
       style="fill:none;fill-opacity:1;stroke:#000000;stroke-width:0.750001;stroke-linecap:round;stroke-linejoin:round;stroke-dasharray:none;stroke-opacity:1"
       d="m 20.036026,85.691371 c 0,0 -1.371661,0.0206 -1.345108,-1.22741 0.01681,-0.79026 0.225929,-2.09961 0.504415,-2.77429 0.186486,-0.45179 0.958391,-0.45402 2.622962,-0.1177 0.937528,0.18942 5.884852,1.5805 5.884852,1.5805 0,0 1.623772,0.33448 1.457323,2.33186 -0.166447,1.99739 0.428011,3.3052 -1.022469,3.21009 -1.450483,-0.0951 -2.425396,-0.26157 -3.328975,0.19022 -0.903578,0.45179 -0.737131,0.83224 -2.021162,0.64202 -1.284034,-0.19023 -2.734517,0.0476 -2.734517,-1.09381 0,-1.14136 -0.01732,-2.74148 -0.01732,-2.74148 z"
       id="path31"
       sodipodi:nodetypes="cssscssssscc" /><path
       style="fill:none;fill-opacity:1;stroke:#000000;stroke-width:0.750001;stroke-linecap:round;stroke-linejoin:round;stroke-dasharray:none;stroke-opacity:1"
       d="m 20.036025,85.691371 c 0,0 0.255106,-0.8015 0.0411,-1.6813 -0.214005,-0.8798 -1.134633,-1.46787 -1.134633,-1.46787"
       id="path32" /><path
       style="fill:none;fill-opacity:1;stroke:#000000;stroke-width:0.750001;stroke-linecap:round;stroke-linejoin:round;stroke-dasharray:none;stroke-opacity:1"
       d="m 20.495268,86.044461 2.999999,0.36723 v 3.32943"
       id="path33"
       sodipodi:nodetypes="ccc" /><path
       style="fill:none;fill-opacity:1;stroke:#000000;stroke-width:0.750001;stroke-linecap:round;stroke-linejoin:round;stroke-dasharray:none;stroke-opacity:1"
       d="m 23.495267,86.411691 c 0,0 1.000001,-0.90528 2.000001,-1.10704 1.000001,-0.20177 1.999999,-0.03363 1.999999,-0.03363"
       id="path34" /><path
       style="fill:none;fill-opacity:1;stroke:#000000;stroke-width:0.750001;stroke-linecap:round;stroke-linejoin:round;stroke-dasharray:none;stroke-opacity:1"
       d="m 49.591917,90.591181 c 0,0 2.390442,0.6992 2.827602,-0.0406 0.437161,-0.73981 1.513248,-2.01766 1.513248,-2.01766"
       id="path35" /><path
       style="fill:none;fill-opacity:1;stroke:#000000;stroke-width:0.750001;stroke-linecap:round;stroke-linejoin:round;stroke-dasharray:none;stroke-opacity:1"
       d="m 49.633658,93.045861 1.844286,0.53121 c 0,0 1.378736,0.33627 2.387565,-1.00883 1.008833,-1.34511 1.513248,-2.21944 1.513248,-2.21944"
       id="path36" /><path
       style="fill:none;fill-opacity:1;stroke:#000000;stroke-width:0.750001;stroke-linecap:round;stroke-linejoin:round;stroke-dasharray:none;stroke-opacity:1"
       d="m 58.181514,70.04207 c 0,0 -2.216807,-0.658019 -2.288142,1.85969 -0.04572,1.613483 1.301284,4.424291 1.50305,6.341071 0.201766,1.91678 0.134511,1.91678 0.134511,1.91678"
       id="path37"
       sodipodi:nodetypes="cssc" /><path
       style="fill:none;fill-opacity:1;stroke:#000000;stroke-width:0.750001;stroke-linecap:round;stroke-linejoin:round;stroke-dasharray:none;stroke-opacity:1"
       d="m 60.852885,74.712591 c 0,0 -0.362714,2.35327 0.511607,4.16916 0.87432,1.8159 0.975203,4.06896 0.134511,4.80877 -0.840692,0.73981 -1.513247,0.47078 -1.513247,0.47078"
       id="path38" /><path
       style="fill:none;fill-opacity:1;stroke:#000000;stroke-width:0.750001;stroke-linecap:round;stroke-linejoin:round;stroke-dasharray:none;stroke-opacity:1"
       d="m 57.931916,73.926091 c 0,0 0.305199,1.39113 0.944148,3.47605 0.638926,2.08492 0.302648,3.21144 0.302648,3.21144"
       id="path39"
       sodipodi:nodetypes="csc" /><path
       style="fill:none;fill-opacity:1;stroke:#000000;stroke-width:0.750001;stroke-linecap:round;stroke-linejoin:round;stroke-dasharray:none;stroke-opacity:1"
       d="m 65.184726,53.668851 17.881351,4.13744"
       id="path40" /><path
       style="fill:none;fill-opacity:1;stroke:#000000;stroke-width:0.750001;stroke-linecap:round;stroke-linejoin:round;stroke-dasharray:none;stroke-opacity:1"
       d="m 63.948251,57.901401 18.642256,4.04233"
       id="path41" /><path
       style="fill:none;fill-opacity:1;stroke:#000000;stroke-width:0.750001;stroke-linecap:round;stroke-linejoin:round;stroke-dasharray:none;stroke-opacity:1"
       d="m 86.249007,64.320951 c 0,0 -2.28669,-0.0336 -3.19464,-1.04246 -0.90794,-1.00883 -0.40353,-2.42119 -0.23539,-4.16983 0.16814,-1.74864 1.71501,-1.47962 1.71501,-1.47962 l 2.45483,0.23539"
       id="path42" /><path
       style="fill:none;fill-opacity:1;stroke:#000000;stroke-width:0.750001;stroke-linecap:round;stroke-linejoin:round;stroke-dasharray:none;stroke-opacity:1"
       d="m 89.227937,73.419141 0.65286,-13.06626 c 0,0 0.1177,-2.7911 -1.0929,-1.34511 -1.2106,1.44599 -1.0137,3.98221 -1.0137,3.98221 l 0.0889,10.91487"
       id="path43"
       sodipodi:nodetypes="ccscc" /><path
       style="fill:none;fill-opacity:1;stroke:#000000;stroke-width:0.750001;stroke-linecap:round;stroke-linejoin:round;stroke-dasharray:none;stroke-opacity:1"
       d="m 89.565947,58.667771 c 0,0 -0.84062,-1.40838 -1.88687,-0.86148 -1.04625,0.5469 -1.51844,2.04556 -1.47426,4.28011 0.0442,2.23455 0.16645,12.93544 0.16645,12.93544 0,0 -0.11889,1.16514 1.40293,1.26026 1.52181,0.0951 2.82963,0.14267 2.82963,0.14267"
       id="path44" /><path
       style="fill:none;fill-opacity:1;stroke:#000000;stroke-width:0.750001;stroke-linecap:round;stroke-linejoin:round;stroke-dasharray:none;stroke-opacity:1"
       d="m 90.960497,77.043001 c -0.51805,-0.62447 -0.38045,-2.11627 0.52313,-2.82962 0.90357,-0.71336 2.06872,-0.57068 2.71073,-0.42801 0.64202,0.14267 2.35406,0.5469 5.49281,0.28534 3.138753,-0.26157 4.803233,0.8798 4.303893,3.7332 -0.49935,2.85341 -2.33029,3.51921 -3.56676,3.21009 -1.236483,-0.30912 -2.331763,-1.91771 -3.863353,-2.41147 -3.1139,-1.00387 -4.91932,-0.73848 -5.60045,-1.55953 z"
       id="path45"
       sodipodi:nodetypes="ssssssss" /><path
       style="fill:none;fill-opacity:1;stroke:#000000;stroke-width:0.750001;stroke-linecap:round;stroke-linejoin:round;stroke-dasharray:none;stroke-opacity:1"
       d="m 89.227937,73.419141 3.98192,0.24975"
       id="path46"
       sodipodi:nodetypes="cc" /><path
       style="fill:none;fill-opacity:1;stroke:#000000;stroke-width:1;stroke-linecap:round;stroke-linejoin:round;stroke-dasharray:none;stroke-opacity:1"
       d="m 78.405507,49.483851 14.17192,2.7583 c 0,0 5.19,0.26836 6.22994,3.66187 0.90357,2.94852 -0.52313,5.6117 -0.52313,5.6117 l -3.1863,5.6117"
       id="path47"
       sodipodi:nodetypes="ccscc" /><path
       style="fill:none;fill-opacity:1;stroke:#000000;stroke-width:1;stroke-linecap:round;stroke-linejoin:round;stroke-dasharray:none;stroke-opacity:1"
       d="m 65.36619,69.936781 5.447689,-8.47418"
       id="path48" /><path
       style="fill:none;fill-opacity:1;stroke:#000000;stroke-width:0.75;stroke-linecap:round;stroke-linejoin:round;stroke-dasharray:none;stroke-opacity:1"
       d="m 80.307777,69.505261 c -1.37914,-0.61824 -9.012005,-3.16253 -10.795384,-1.7596 -1.783379,1.40292 -0.356449,2.59818 0.395372,2.80177 1.483906,0.40184 6.310132,1.57345 6.310132,1.57345 0,0 2.3065,0.71335 3.49542,0.28534 1.18892,-0.42801 1.97361,-2.28273 0.59446,-2.90096 z"
       id="path49"
       sodipodi:nodetypes="ssscss" /><path
       style="fill:none;fill-opacity:1;stroke:#000000;stroke-width:0.750001;stroke-linecap:round;stroke-linejoin:round;stroke-dasharray:none;stroke-opacity:1"
       d="m 68.656988,69.213681 -0.348372,6.3053 c 0,0 -0.413155,1.76181 1.60801,2.4276 2.021163,0.6658 6.206161,1.52182 6.206161,1.52182 0,0 3.10533,0.76565 4.44313,-0.14949 0.74777,-0.51152 0.90795,-0.84069 0.90795,-0.84069 v -2.35394"
       id="path50"
       sodipodi:nodetypes="ccscscc" /><path
       style="fill:none;fill-opacity:1;stroke:#000000;stroke-width:0.750001;stroke-linecap:round;stroke-linejoin:round;stroke-dasharray:none;stroke-opacity:1"
       d="m 85.643707,56.384811 c 0,0 1.3451,-2.28669 4.10257,-1.31149 2.75748,0.97521 5.11142,2.69023 4.00171,4.60701 -1.10972,1.91678 -2.85836,3.53091 -2.85836,3.53091"
       id="path51"
       sodipodi:nodetypes="cssc" /><path
       style="fill:none;fill-opacity:1;stroke:#000000;stroke-width:0.750001;stroke-linecap:round;stroke-linejoin:round;stroke-dasharray:none;stroke-opacity:1"
       d="m 77.068637,67.011171 3.49729,-4.16984"
       id="path52"
       sodipodi:nodetypes="cc" /><path
       style="fill:none;fill-opacity:1;stroke:#000000;stroke-width:0.750001;stroke-linecap:round;stroke-linejoin:round;stroke-dasharray:none;stroke-opacity:1"
       d="m 66.072371,76.662321 c 0,0 -0.63341,2.00179 0.773438,2.63978 2.6493,1.20144 9.136886,2.561966 11.457206,2.595596 2.32031,0.0336 2.895363,-0.690063 2.895363,-0.690063"
       id="path53"
       sodipodi:nodetypes="cssc" /><path
       style="fill:none;fill-opacity:1;stroke:#000000;stroke-width:0.750001;stroke-linecap:round;stroke-linejoin:round;stroke-dasharray:none;stroke-opacity:1"
       d="m 63.472684,80.728661 c 0,0 14.420744,3.245892 15.229214,3.959242 0.80846,0.71335 0.812332,1.401231 0.812332,1.401231"
       id="path54"
       sodipodi:nodetypes="csc" /><path
       style="fill:none;fill-opacity:1;stroke:#000000;stroke-width:0.750001;stroke-linecap:round;stroke-linejoin:round;stroke-dasharray:none;stroke-opacity:1"
       d="m 63.092229,82.107801 c 0,0 11.698968,2.85341 12.745218,3.1863 1.04625,0.3329 1.94982,0.61824 1.94982,1.61694 0,0.99869 0.6052,1.41803 2.50862,1.39103 2.00111,-0.0284 3.64174,-0.48619 5.21936,-1.8666"
       id="path55"
       sodipodi:nodetypes="csssc" /><path
       style="fill:none;fill-opacity:1;stroke:#000000;stroke-width:0.750001;stroke-linecap:round;stroke-linejoin:round;stroke-dasharray:none;stroke-opacity:1"
       d="m 56.841768,79.938141 1.378738,0.26903"
       id="path56" /><path
       style="fill:none;fill-opacity:1;stroke:#000000;stroke-width:0.750001;stroke-linecap:round;stroke-linejoin:round;stroke-dasharray:none;stroke-opacity:1"
       d="m 55.810148,80.933391 1.378738,0.26903"
       id="path57" /><path
       style="fill:none;fill-opacity:1;stroke:#000000;stroke-width:0.750001;stroke-linecap:round;stroke-linejoin:round;stroke-dasharray:none;stroke-opacity:1"
       d="m 55.378757,82.153841 1.378738,0.26903"
       id="path58" /><path
       style="fill:none;fill-opacity:1;stroke:#000000;stroke-width:0.750001;stroke-linecap:round;stroke-linejoin:round;stroke-dasharray:none;stroke-opacity:1"
       d="m 55.025666,83.448511 1.378738,0.26903"
       id="path59" /><path
       style="fill:none;fill-opacity:1;stroke:#000000;stroke-width:0.750001;stroke-linecap:round;stroke-linejoin:round;stroke-dasharray:none;stroke-opacity:1"
       d="m 54.807086,84.827251 1.378738,0.26903"
       id="path60" /><path
       style="fill:none;fill-opacity:1;stroke:#000000;stroke-width:0.750001;stroke-linecap:round;stroke-linejoin:round;stroke-dasharray:none;stroke-opacity:1"
       d="m 54.910359,86.234691 1.378738,0.26903"
       id="path61" /><path
       style="fill:none;fill-opacity:1;stroke:#000000;stroke-width:0.750001;stroke-linecap:round;stroke-linejoin:round;stroke-dasharray:none;stroke-opacity:1"
       d="m 54.998508,87.448171 1.378738,0.26903"
       id="path62" /><path
       style="fill:none;fill-opacity:1;stroke:#000000;stroke-width:0.750001;stroke-linecap:round;stroke-linejoin:round;stroke-dasharray:none;stroke-opacity:1"
       d="m 55.477455,88.613601 1.378738,0.26903"
       id="path63" /><path
       style="fill:none;fill-opacity:1;stroke:#000000;stroke-width:0.750001;stroke-linecap:round;stroke-linejoin:round;stroke-dasharray:none;stroke-opacity:1"
       d="m 57.60987,88.491541 1.378738,0.26903"
       id="path67" /><path
       style="fill:none;fill-opacity:1;stroke:#000000;stroke-width:0.750001;stroke-linecap:round;stroke-linejoin:round;stroke-dasharray:none;stroke-opacity:1"
       d="m 58.336452,87.226911 1.378738,0.26903"
       id="path68" /><path
       style="fill:none;fill-opacity:1;stroke:#000000;stroke-width:0.750001;stroke-linecap:round;stroke-linejoin:round;stroke-dasharray:none;stroke-opacity:1"
       d="m 58.830523,85.884341 1.378738,0.26903"
       id="path69" /><path
       style="fill:none;fill-opacity:1;stroke:#000000;stroke-width:0.750001;stroke-linecap:round;stroke-linejoin:round;stroke-dasharray:none;stroke-opacity:1"
       d="m 56.068126,82.288351 c 0,0 -1.025644,3.05654 -0.403532,5.03396 0.622112,1.97742 1.883151,3.42342 3.312329,0.2456 1.429179,-3.17781 0.487601,-6.05299 0.487601,-6.05299 0,0 -0.807061,-2.23983 -1.933591,-1.35531 -1.126532,0.88451 -1.462807,2.12874 -1.462807,2.12874 z"
       id="path75" /><path
       style="fill:none;fill-opacity:1;stroke:#000000;stroke-width:0.750001;stroke-linecap:round;stroke-linejoin:round;stroke-dasharray:none;stroke-opacity:1"
       d="m 59.110588,84.275631 1.378738,0.26903"
       id="path70" /><path
       style="fill:none;fill-opacity:1;stroke:#000000;stroke-width:0.750001;stroke-linecap:round;stroke-linejoin:round;stroke-dasharray:none;stroke-opacity:1"
       d="m 59.060992,82.658261 1.378738,0.26903"
       id="path71" /><path
       style="fill:none;fill-opacity:1;stroke:#000000;stroke-width:0.750001;stroke-linecap:round;stroke-linejoin:round;stroke-dasharray:none;stroke-opacity:1"
       d="m 58.775156,81.380411 1.378738,0.26903"
       id="path72" /><path
       style="fill:none;fill-opacity:1;stroke:#000000;stroke-width:0.750001;stroke-linecap:round;stroke-linejoin:round;stroke-dasharray:none;stroke-opacity:1"
       d="m 61.734396,86.548871 18.830818,4.513924 c 0,0 0.919197,0.199732 1.253093,-0.526151 0.401922,-0.87377 -0.71435,-1.230293 -0.71435,-1.230293 L 61.66714,84.934741"
       id="path76"
       sodipodi:nodetypes="ccscc" /><path
       style="fill:none;fill-opacity:1;stroke:#000000;stroke-width:0.750001;stroke-linecap:round;stroke-linejoin:round;stroke-dasharray:none;stroke-opacity:1"
       d="m 79.288067,72.862391 c 0,0 -0.53805,1.2106 0.50441,1.68139 1.04246,0.47079 2.01767,1.27785 2.99287,0.94157 0.97521,-0.33627 1.37874,-0.80706 1.37874,-0.80706"
       id="path77" /><path
       style="fill:none;fill-opacity:1;stroke:#000000;stroke-width:0.750001;stroke-linecap:round;stroke-linejoin:round;stroke-dasharray:none;stroke-opacity:1"
       d="m 82.079167,73.080971 c 0,0 -0.52123,-0.80706 -0.16814,-1.29467 0.35309,-0.4876 1.00883,-0.52122 1.44599,-0.38671 0.43716,0.13451 0.82388,0.87432 0.9752,1.56368 0.15133,0.68937 0.13452,0.65575 0.13452,0.65575"
       id="path78" /><path
       style="fill:none;fill-opacity:1;stroke:#000000;stroke-width:0.750001;stroke-linecap:round;stroke-linejoin:round;stroke-dasharray:none;stroke-opacity:1"
       d="m 82.734907,70.895171 c 0,0 -0.0673,-0.73981 0.47079,-0.90795 0.53804,-0.16814 2.42119,0.42035 2.43801,1.14334 0.0168,0.723 -1.10972,1.41237 -1.10972,1.41237"
       id="path79" /><path
       style="fill:none;fill-opacity:1;stroke:#000000;stroke-width:0.750001;stroke-linecap:round;stroke-linejoin:round;stroke-dasharray:none;stroke-opacity:1"
       d="m 91.150727,68.173671 c 0,0 -0.80847,-1.52182 -0.19023,-2.0925 0.61824,-0.57068 2.61562,-1.33159 2.56807,0.57068 -0.0476,1.90227 -0.14267,2.71074 0.52312,4.37522 0.6658,1.66449 0.6658,1.71205 0.6658,1.71205 0,0 -1.42671,-0.28534 -1.80716,-0.57069 -0.38046,-0.28534 -1.7596,-0.80846 -1.61693,-1.99738 0.14267,-1.18892 -0.14267,-1.99738 -0.14267,-1.99738 z"
       id="path80" /><path
       style="fill:none;fill-opacity:1;stroke:#000000;stroke-width:0.750001;stroke-linecap:round;stroke-linejoin:round;stroke-dasharray:none;stroke-opacity:1"
       d="m 90.519727,78.141941 -3.49729,5.54858 c 0,0 -0.80706,-0.77344 -0.50441,-1.31148 0.30265,-0.53805 -0.47079,-1.54688 -1.31148,-1.37874 -0.8407,0.16814 -2.52208,0.33628 -2.21943,1.10971 0.30265,0.77344 1.17697,0.30265 1.10971,0.8407 -0.0673,0.53804 0.10089,1.31148 1.2106,2.01766 1.10971,0.70618 2.52208,1.5805 3.59817,0.63893 1.07608,-0.94158 4.30434,-6.75917 4.30434,-6.75917"
       id="path81" /><path
       style="fill:none;fill-opacity:1;stroke:#000000;stroke-width:1;stroke-linecap:round;stroke-linejoin:round;stroke-dasharray:none;stroke-opacity:1"
       d="M 29.683594,35.228721 28.910798,34.717476"
       id="path82"
       sodipodi:nodetypes="cc" /><path
       style="fill:none;fill-opacity:1;stroke:#000000;stroke-width:1;stroke-linecap:round;stroke-linejoin:round;stroke-dasharray:none;stroke-opacity:1"
       d="M 31.526419,36.072857 30.884404,35.692392"
       id="path84"
       sodipodi:nodetypes="cc" /><path
       style="fill:none;fill-opacity:1;stroke:#000000;stroke-width:1;stroke-linecap:round;stroke-linejoin:round;stroke-dasharray:none;stroke-opacity:1"
       d="M 33.880479,36.310644 33.238464,35.965847"
       id="path85"
       sodipodi:nodetypes="cc" /><path
       style="fill:none;fill-opacity:1;stroke:#000000;stroke-width:1;stroke-linecap:round;stroke-linejoin:round;stroke-dasharray:none;stroke-opacity:1"
       d="M 36.068091,36.916991 35.295295,36.405746"
       id="path86"
       sodipodi:nodetypes="cc" /><path
       style="fill:none;fill-opacity:1;stroke:#000000;stroke-width:1;stroke-linecap:round;stroke-linejoin:round;stroke-dasharray:none;stroke-opacity:1"
       d="m 38.220035,37.261776 -0.713351,-0.43991"
       id="path87"
       sodipodi:nodetypes="cc" /><path
       style="fill:none;fill-opacity:1;stroke:#000000;stroke-width:1;stroke-linecap:round;stroke-linejoin:round;stroke-dasharray:none;stroke-opacity:1"
       d="M 40.169862,38.010797 39.48029,37.582776"
       id="path88"
       sodipodi:nodetypes="cc" /><path
       style="fill:none;fill-opacity:1;stroke:#000000;stroke-width:1;stroke-linecap:round;stroke-linejoin:round;stroke-dasharray:none;stroke-opacity:1"
       d="M 42.547701,38.379364 41.822462,37.927565"
       id="path89"
       sodipodi:nodetypes="cc" /><path
       style="fill:none;fill-opacity:1;stroke:#000000;stroke-width:1;stroke-linecap:round;stroke-linejoin:round;stroke-dasharray:none;stroke-opacity:1"
       d="M 44.711534,38.902486 43.831735,38.236681"
       id="path90"
       sodipodi:nodetypes="cc" /><path
       style="fill:none;fill-opacity:1;stroke:#000000;stroke-width:1;stroke-linecap:round;stroke-linejoin:round;stroke-dasharray:none;stroke-opacity:1"
       d="M 46.792143,39.532614 46.12635,39.033258"
       id="path91"
       sodipodi:nodetypes="cc" /><path
       style="fill:none;fill-opacity:1;stroke:#000000;stroke-width:1;stroke-linecap:round;stroke-linejoin:round;stroke-dasharray:none;stroke-opacity:1"
       d="M 49.086758,40.067628 48.539856,39.675275"
       id="path92"
       sodipodi:nodetypes="cc" /></g></svg>
