<?xml version="1.0" encoding="UTF-8" standalone="no"?>
<!-- Created with Inkscape (http://www.inkscape.org/) -->

<svg
   width="31.330748mm"
   height="24.542854mm"
   viewBox="0 0 31.330748 24.542855"
   version="1.1"
   id="svg1"
   xml:space="preserve"
   inkscape:version="1.4 (e7c3feb100, 2024-10-09)"
   sodipodi:docname="input_reset.svg"
   xmlns:inkscape="http://www.inkscape.org/namespaces/inkscape"
   xmlns:sodipodi="http://sodipodi.sourceforge.net/DTD/sodipodi-0.dtd"
   xmlns:xlink="http://www.w3.org/1999/xlink"
   xmlns="http://www.w3.org/2000/svg"
   xmlns:svg="http://www.w3.org/2000/svg"><sodipodi:namedview
     id="namedview1"
     pagecolor="#505050"
     bordercolor="#ffffff"
     borderopacity="1"
     inkscape:showpageshadow="0"
     inkscape:pageopacity="0"
     inkscape:pagecheckerboard="1"
     inkscape:deskcolor="#505050"
     inkscape:document-units="mm"
     inkscape:zoom="3.0232875"
     inkscape:cx="117.25646"
     inkscape:cy="48.291801"
     inkscape:window-width="1920"
     inkscape:window-height="1008"
     inkscape:window-x="0"
     inkscape:window-y="0"
     inkscape:window-maximized="1"
     inkscape:current-layer="layer1"
     showgrid="false"><inkscape:grid
       id="grid33"
       units="mm"
       originx="2.8061998"
       originy="0.75099344"
       spacingx="0.99999998"
       spacingy="1"
       empcolor="#0099e5"
       empopacity="0.30196078"
       color="#0099e5"
       opacity="0.14901961"
       empspacing="5"
       enabled="true"
       visible="false" /></sodipodi:namedview><defs
     id="defs1"><marker
       style="overflow:visible"
       id="Triangle"
       refX="0"
       refY="0"
       orient="auto-start-reverse"
       inkscape:stockid="Triangle arrow"
       markerWidth="0.5"
       markerHeight="0.5"
       viewBox="0 0 1 1"
       inkscape:isstock="true"
       inkscape:collect="always"
       preserveAspectRatio="xMidYMid"><path
         transform="scale(0.5)"
         style="fill:context-stroke;fill-rule:evenodd;stroke:context-stroke;stroke-width:1pt"
         d="M 5.77,0 -2.88,5 V -5 Z"
         id="path135" /></marker><linearGradient
       id="linearGradient24"><stop
         style="stop-color:#f9e4a3;stop-opacity:1;"
         offset="0"
         id="stop24" /><stop
         style="stop-color:#e9e4d3;stop-opacity:1;"
         offset="0.21608873"
         id="stop26" /><stop
         style="stop-color:#f9e4a3;stop-opacity:1;"
         offset="0.38157895"
         id="stop27" /><stop
         style="stop-color:#f9e4a3;stop-opacity:1;"
         offset="0.48854685"
         id="stop31" /><stop
         style="stop-color:#ffffff;stop-opacity:1;"
         offset="0.56883341"
         id="stop30" /><stop
         style="stop-color:#f9e4a3;stop-opacity:1;"
         offset="0.61368102"
         id="stop28" /><stop
         style="stop-color:#dcbd5c;stop-opacity:1;"
         offset="0.79520744"
         id="stop29" /><stop
         style="stop-color:#f9e4a3;stop-opacity:1;"
         offset="1"
         id="stop25" /></linearGradient><linearGradient
       xlink:href="#linearGradient24"
       id="linearGradient35"
       gradientUnits="userSpaceOnUse"
       x1="-13.801792"
       y1="148.06564"
       x2="112.66289"
       y2="148.06564"
       gradientTransform="matrix(0.20859453,0,0,0.20859453,3.128959,-18.672504)" /></defs><g
     inkscape:label="Layer 1"
     inkscape:groupmode="layer"
     id="layer1"
     transform="translate(2.8062009,0.75099339)"><path
       style="fill:none;fill-opacity:1;stroke:#000000;stroke-width:0.693818;stroke-linecap:round;stroke-linejoin:round;stroke-dasharray:none;stroke-opacity:1;paint-order:stroke fill markers"
       d="m 10.86093,22.272039 c 1.08274,0.541376 1.56138,0.08578 1.56138,0.08578 l 0.86662,-0.779734 m 2.93482,-1.951794 5.70685,1.855062 c 0,0 -0.70061,0.638025 -0.0143,0.918997 0.76393,0.312762 1.47462,-0.577077 1.47462,-0.577077 0,0 0.64715,-0.793034 1.73932,-2.009294 m 1.94427,-2.055082 c 0.33663,-0.390193 0.6851,-0.800649 0.93393,-1.123465 0.74547,-0.9671 -1.47589,-1.445969 -1.47589,-1.445969 L 23.74,14.524861"
       id="path26"
       sodipodi:nodetypes="cccccscccscc" /><path
       style="fill:none;fill-opacity:1;stroke:#000000;stroke-width:0.693818;stroke-linecap:round;stroke-linejoin:round;stroke-dasharray:none;stroke-opacity:1;paint-order:stroke fill markers"
       d="m 14.19465,13.018822 c -0.13535,0.292055 -0.67672,0.890418 -0.74083,1.374804 -0.0641,0.484386 -0.16384,0.683841 -0.35617,0.89754 -0.19233,0.2137 -0.39891,0.57699 -0.46301,0.733703 -0.0641,0.156716 -1.05426,1.588507 -1.42467,2.072893 -0.37043,0.484389 -0.35617,1.695355 -0.35617,1.695355 0,0 0.007,2.478922 -0.0285,3.169888 -0.0356,0.690967 -0.61973,0.434525 -0.61973,0.434525 0,0 -11.0625477,-4.259759 -11.6466617,-4.480584 -0.584095,-0.220822 -0.711825,-0.971908 -0.711825,-0.971908 L -2.4148377,15.487 c 0,0 -0.179561,-1.019274 0.183075,-1.4068 0.570436,-0.609585 2.137002,-2.179744 2.293716,-2.45043 0.156713,-0.270686 0.08548,-0.740827 0.284933,-0.954528"
       id="path27"
       sodipodi:nodetypes="csssscscsccssc" /><path
       style="fill:none;fill-opacity:1;stroke:#e51a1a;stroke-width:0.693818;stroke-linecap:butt;stroke-linejoin:round;stroke-dasharray:none;stroke-opacity:1;paint-order:stroke fill markers"
       d="m 8.2725403,2.0245001 -1.91517,-0.20787 c 0,0 -0.39091,0.166252 -0.44023,0.735633 -0.0438,0.505269 0.36536,0.673117 0.36536,0.673117 l 0.8795,0.083"
       id="path48-5"
       sodipodi:nodetypes="ccscc" /><path
       style="fill:none;fill-opacity:1;stroke:#000000;stroke-width:0.693818;stroke-linecap:round;stroke-linejoin:round;stroke-dasharray:none;stroke-opacity:1;paint-order:stroke fill markers"
       d="M 0.3468863,10.675242 13.78449,13.654231 c 0,0 0.6951,-0.884726 0.82332,-1.540075 0.12822,-0.655346 0.0285,-2.7353619 1.11124,-3.7611229 1.08275,-1.025761 2.00878,-0.797814 2.84934,-2.307962 0.84055,-1.510149 2.74961,-4.7868852 3.19126,-4.9151052 L 22.20129,1.0017458 10.13436,0.34639851 c 0,0 -0.3561697,-0.04274 -0.8975497,0.5698669 -0.54137,0.61260769 -3.49043,4.03181069 -3.49043,4.03181069 0,0 -0.50992,0.479986 -0.90799,0.616108 -0.64515,0.220613 -1.957381,0.431451 -2.72169,1.570223 -0.570373,0.849819 -0.522116,1.905281 -0.86463,2.308237 -0.342513,0.402958 -0.905184,1.2325979 -0.905184,1.2325979 z"
       id="path28"
       sodipodi:nodetypes="ccscssccscsssc" /><path
       style="fill:none;fill-opacity:1;stroke:#000000;stroke-width:0.693818;stroke-linecap:round;stroke-linejoin:round;stroke-dasharray:none;stroke-opacity:1;paint-order:stroke fill markers"
       d="m 22.20129,1.0017458 c 0,0 0.15672,-0.056987 0.52001,0.2208233 0.36329,0.27781 0.23506,1.374805 0.23506,1.374805 l -0.11763,2.02192 m -0.17126,2.045006 -0.28548,4.0734339 m -0.34593,3.302777 -2.52039,2.25153 m -2.00471,1.722643 -1.30145,1.234066"
       id="path29"
       sodipodi:nodetypes="cscccccccc" /><path
       style="fill:none;fill-opacity:1;stroke:#000000;stroke-width:0.520364;stroke-linecap:round;stroke-linejoin:round;stroke-dasharray:none;stroke-opacity:1;paint-order:stroke fill markers"
       d="M 9.4505103,15.590348 0.4751063,13.08293"
       id="path30" /><path
       style="fill:none;fill-opacity:1;stroke:#000000;stroke-width:0.346909;stroke-linecap:round;stroke-linejoin:round;stroke-dasharray:none;stroke-opacity:1;paint-order:stroke fill markers"
       d="m 10.17767,11.230512 c 0,0 0.26871,-0.501177 0.44275,-1.3945819 0.1758,-0.902453 0.49657,-1.829651 1.20887,-2.340102 0.76283,-0.546664 1.94871,-0.908949 1.94871,-0.908949"
       id="path31"
       sodipodi:nodetypes="cssc" /><path
       style="fill:none;fill-opacity:1;stroke:#000000;stroke-width:0.520364;stroke-linecap:round;stroke-linejoin:round;stroke-dasharray:none;stroke-opacity:1;paint-order:stroke fill markers"
       d="M 16.51905,4.8931661 8.0565303,4.0098701"
       id="path33"
       sodipodi:nodetypes="cc" /><path
       style="fill:none;fill-opacity:1;stroke:#000000;stroke-width:0.520364;stroke-linecap:round;stroke-linejoin:round;stroke-dasharray:none;stroke-opacity:1;paint-order:stroke fill markers"
       d="m 2.7105473,18.015554 1.047683,0.342514 c 0,0 0.36566,0.03174 0.37991,0.537508 0.0143,0.505759 0.0356,1.01864 0.0356,1.01864 0,0 -0.0107,0.224384 -0.22083,0.227947 -0.21014,0.0036 -0.822743,-0.0036 -0.822743,-0.0036 l -0.623292,0.106851 c 0,0 -0.263563,0.05342 -0.391783,0.0036 -0.12822,-0.04986 -1.007953,-0.388222 -1.007953,-0.388222 0,0 -0.135344,-0.02137 -0.14959,-0.299178 -0.01425,-0.277812 -0.01781,-0.559183 -0.01781,-0.559183 0,0 -0.02137,-0.156713 0.09973,-0.284934 0.121096,-0.128221 0.374045,-0.490387 0.399229,-0.576015 0.02519,-0.08563 0.07304,-0.339995 0.07304,-0.339995 0,0 0,-0.123406 0.186367,-0.068 0.186368,0.0554 1.012428,0.282064 1.012428,0.282064 z"
       id="path34"
       sodipodi:nodetypes="ccscsccscscsscscc" /><path
       style="fill:none;fill-opacity:1;stroke:#000000;stroke-width:0.346909;stroke-linecap:round;stroke-linejoin:round;stroke-dasharray:none;stroke-opacity:1;paint-order:stroke fill markers"
       d="m 4.6987803,10.169125 c 0,0 0.26871,-0.5011789 0.44275,-1.3945839 0.1758,-0.902453 0.49658,-1.829651 1.20887,-2.340102 0.76283,-0.546665 1.41503,-0.9319 1.41503,-0.9319"
       id="path35"
       sodipodi:nodetypes="cssc" /><path
       style="fill:none;fill-opacity:1;stroke:#000000;stroke-width:0.346909;stroke-linecap:round;stroke-linejoin:round;stroke-dasharray:none;stroke-opacity:1;paint-order:stroke fill markers"
       d="m 5.2870503,10.29215 c 0,0 0.2687,-0.5011799 0.44274,-1.3945849 0.17581,-0.902452 0.49658,-1.82965 1.20888,-2.340101 0.76282,-0.546665 1.46489,-0.917653 1.46489,-0.917653"
       id="path36"
       sodipodi:nodetypes="cssc" /><path
       style="fill:none;fill-opacity:1;stroke:#000000;stroke-width:0.346909;stroke-linecap:round;stroke-linejoin:round;stroke-dasharray:none;stroke-opacity:1;paint-order:stroke fill markers"
       d="m 5.8640403,10.416808 c 0,0 0.2687,-0.5011789 0.44275,-1.3945839 0.1758,-0.902453 0.49657,-1.829651 1.20887,-2.340102 0.76282,-0.546665 1.55749,-0.967516 1.55749,-0.967516"
       id="path37"
       sodipodi:nodetypes="cssc" /><path
       style="fill:none;fill-opacity:1;stroke:#000000;stroke-width:0.346909;stroke-linecap:round;stroke-linejoin:round;stroke-dasharray:none;stroke-opacity:1;paint-order:stroke fill markers"
       d="m 6.4695203,10.52722 c 0,0 0.26871,-0.50118 0.44275,-1.3945849 0.1758,-0.902452 0.49658,-1.82965 1.20887,-2.340102 0.76283,-0.546664 1.56462,-0.960392 1.56462,-0.960392"
       id="path38"
       sodipodi:nodetypes="cssc" /><path
       style="fill:none;fill-opacity:1;stroke:#000000;stroke-width:0.346909;stroke-linecap:round;stroke-linejoin:round;stroke-dasharray:none;stroke-opacity:1;paint-order:stroke fill markers"
       d="m 7.0429503,10.641193 c 0,0 0.26871,-0.501179 0.44275,-1.3945839 0.1758,-0.902453 0.49657,-1.829651 1.20887,-2.340102 0.76283,-0.546665 1.6073597,-0.946146 1.6073597,-0.946146"
       id="path39"
       sodipodi:nodetypes="cssc" /><path
       style="fill:none;fill-opacity:1;stroke:#000000;stroke-width:0.346909;stroke-linecap:round;stroke-linejoin:round;stroke-dasharray:none;stroke-opacity:1;paint-order:stroke fill markers"
       d="m 7.6520003,10.744481 c 0,0 0.2687,-0.501179 0.44274,-1.3945839 0.17581,-0.902453 0.49658,-1.82965 1.20887,-2.340102 C 10.06644,6.4631311 10.96796,6.0636491 10.96796,6.0636491"
       id="path40"
       sodipodi:nodetypes="cssc" /><path
       style="fill:none;fill-opacity:1;stroke:#000000;stroke-width:0.346909;stroke-linecap:round;stroke-linejoin:round;stroke-dasharray:none;stroke-opacity:1;paint-order:stroke fill markers"
       d="m 8.2681603,10.862017 c 0,0 0.26871,-0.50118 0.44275,-1.3945849 0.17581,-0.902452 0.49658,-1.82965 1.20887,-2.340102 C 10.68261,6.5806661 11.63399,6.1811841 11.63399,6.1811841"
       id="path41"
       sodipodi:nodetypes="cssc" /><path
       style="fill:none;fill-opacity:1;stroke:#000000;stroke-width:0.346909;stroke-linecap:round;stroke-linejoin:round;stroke-dasharray:none;stroke-opacity:1;paint-order:stroke fill markers"
       d="m 8.8914603,10.986675 c 0,0 0.2687,-0.501179 0.44275,-1.3945839 0.1758,-0.902453 0.49657,-1.82965 1.2088697,-2.340102 0.76282,-0.546664 1.80681,-0.939023 1.80681,-0.939023"
       id="path42"
       sodipodi:nodetypes="cssc" /><path
       style="fill:none;fill-opacity:1;stroke:#000000;stroke-width:0.346909;stroke-linecap:round;stroke-linejoin:round;stroke-dasharray:none;stroke-opacity:1;paint-order:stroke fill markers"
       d="m 9.5290003,11.100649 c 0,0 0.2687,-0.501179 0.44274,-1.3945839 0.1758097,-0.902453 0.4965797,-1.829651 1.2088697,-2.340102 0.76283,-0.546665 1.89942,-0.946146 1.89942,-0.946146"
       id="path43"
       sodipodi:nodetypes="cssc" /><path
       style="fill:none;fill-opacity:1;stroke:#000000;stroke-width:0.693818;stroke-linecap:square;stroke-linejoin:round;stroke-dasharray:none;stroke-opacity:1;paint-order:stroke fill markers"
       d="m 17.28976,10.137746 c 0,0 2.67966,0.614509 4.61385,0.654805 1.9342,0.0403 2.21627,-0.100739 2.11553,1.168576 -0.10074,1.269316 -1.0074,5.52051 -1.0074,5.52051 0,0 0.90666,0.443253 1.79316,0.423104 0.88651,-0.02015 2.17597,-0.402955 2.92144,0.0403 0.74547,0.443253 0.34252,1.87375 0.34252,1.87375 0,0 -0.47348,1.370055 -1.57154,0.906654 -1.09805,-0.463401 -0.93687,-0.74547 -1.54131,-1.04769 -0.60443,-0.302217 -2.88114,-0.957022 -3.07254,-1.007389 -0.19141,-0.05037 0.0504,-0.473476 0.0705,-1.521165 0.0202,-1.047687 0.18133,-4.110162 0.18133,-4.110162 0,0 -0.70517,0.08059 -1.05776,-0.191404 -0.35258,-0.271994 -0.51377,-0.392881 -0.51377,-0.392881 L 16.8062,11.749578"
       id="path44"
       sodipodi:nodetypes="csscsscsssscscc" /><path
       style="fill:none;fill-opacity:1;stroke:#000000;stroke-width:0.693818;stroke-linecap:butt;stroke-linejoin:round;stroke-dasharray:none;stroke-opacity:1;paint-order:stroke fill markers"
       d="m 14.72495,15.292977 c 0.55325,-1.563536 0.65245,-4.519887 1.77128,-6.6725179 0.52628,-1.012559 1.17633,-1.154546 1.17633,-1.154546 l 2.317,0.302219 c 0,0 0.62344,-0.01642 0.57568,0.909624 -0.0449,0.871094 -0.5382,0.920228 -0.5382,0.920228 l -2.41482,-0.370414 c 0,0 -0.78193,1.2197249 -1.1096,3.1002889 -0.28362,1.627687 -0.37721,2.305828 -0.41482,3.307313 m -0.0143,1.956324 c 0.30365,1.142074 0.11695,2.06507 -0.22091,3.112781 m 0,0 c -0.43437,1.346982 -1.91346,1.909481 -2.68498,0.71841 -0.69527,-1.073374 -0.095,-2.822549 0.39247,-3.292444"
       id="path46"
       sodipodi:nodetypes="csccsccsccccsc" /><path
       style="fill:none;fill-opacity:1;stroke:#000000;stroke-width:0.520364;stroke-linecap:square;stroke-linejoin:round;stroke-dasharray:none;stroke-opacity:1;paint-order:stroke fill markers"
       d="m 14.5698,17.189495 1.33983,0.292142 c 0,0 0.61451,0.110813 0.78577,-0.674953 0.17126,-0.785767 -0.4634,-0.97717 -0.4634,-0.97717 l -2.34723,-0.503698 c 0,0 -0.4231,-0.241772 -0.80591,0.181332 -0.38281,0.423105 0.0215,1.131132 0.0215,1.131132 l 1.5244,3.8751 c 0,0 0.4084,0.947457 1.13372,0.01058 0.72532,-0.936876 0.0907,-1.92412 0.0907,-1.92412 l -0.61452,-0.997319"
       id="path47"
       sodipodi:nodetypes="ccsccscc" /><path
       style="fill:none;fill-opacity:1;stroke:#000000;stroke-width:0.693818;stroke-linecap:butt;stroke-linejoin:round;stroke-dasharray:none;stroke-opacity:1;paint-order:stroke fill markers"
       d="m 20.24568,7.8482241 2.27793,-3.213294 2.43465,0.272207 c 0,0 0.33456,0.261762 0.23483,0.824506 -0.0885,0.499379 -0.52712,0.555621 -0.52712,0.555621 l -1.70961,-0.227947 -1.62412,2.861949 c -0.29592,0.542482 -0.67165,0.789988 -0.99726,0.605484"
       id="path48"
       sodipodi:nodetypes="cccscccc" /><path
       style="fill:none;fill-opacity:1;stroke:#000000;stroke-width:0.520364;stroke-linecap:round;stroke-linejoin:round;stroke-dasharray:none;stroke-opacity:1;paint-order:stroke fill markers"
       d="M 10.37187,1.3996277 A 0.52036363,0.52036363 0 0 0 9.8155903,1.8806931 0.52036363,0.52036363 0 0 0 10.29666,2.4376441 l 7.42195,0.541368 a 0.52036363,0.52036363 0 0 0 0.55696,-0.481743 0.52036363,0.52036363 0 0 0 -0.48107,-0.556274 z"
       id="path49" /><path
       style="fill:none;fill-opacity:1;stroke:#000000;stroke-width:0.520364;stroke-linecap:round;stroke-linejoin:round;stroke-dasharray:none;stroke-opacity:1;paint-order:stroke fill markers"
       d="M 21.83088,22.749306 16.04673,20.776139"
       id="path50"
       sodipodi:nodetypes="cc" /><path
       style="fill:none;fill-opacity:1;stroke:#000000;stroke-width:0.520364;stroke-linecap:round;stroke-linejoin:round;stroke-dasharray:none;stroke-opacity:1;paint-order:stroke fill markers"
       d="m 23.29009,16.961523 c 0.87362,-1.294578 2.8674,-1.012395 3.22167,-0.701589 0.24516,0.215084 -1.18301,0.42742 -1.863,1.478589"
       id="path52"
       sodipodi:nodetypes="csc" /><path
       style="fill:none;fill-opacity:1;stroke:#000000;stroke-width:0.693818;stroke-linecap:round;stroke-linejoin:round;stroke-dasharray:none;stroke-opacity:1;paint-order:stroke fill markers"
       d="m 17.58954,17.928567 0.0243,-0.984785 c 0,0 -0.0427,-0.89754 0.95452,-0.797814 0.99727,0.09973 2.30797,0.455894 2.30797,0.455894 0,0 0.93976,0.173076 0.9599,0.79796 0.0256,0.795681 -0.0351,2.027899 -0.0351,2.027899 0,0 0.64406,0.390217 0.35741,0.935263 -0.27658,0.52588 -0.83909,0.88014 -1.59326,0.674669"
       id="path53"
       sodipodi:nodetypes="ccscscsc" /><g
       id="text3"
       style="font-size:4.03531px;font-family:'Cambria Math';-inkscape-font-specification:'Cambria Math, Normal';stroke-width:0.571934;stroke-linecap:round;stroke-linejoin:round;stroke-dasharray:0.571934, 1.7158;stroke-opacity:0.972549;paint-order:stroke fill markers"
       transform="rotate(39.494054)"
       aria-label="At voluptas delectus voluptatem impedit&#10;architecto voluptatibus molestias. Quidem&#10;iusto quaerat ducimus quia ducimus harum&#10;um recusandae nam accusantium ad suscipit." /><text
       xml:space="preserve"
       style="font-size:7.05556px;font-family:'Cambria Math';-inkscape-font-specification:'Cambria Math, Normal';text-align:start;writing-mode:lr-tb;direction:ltr;text-anchor:start;fill:#c73b00;fill-opacity:0.769184;stroke-width:1;stroke-linecap:round;stroke-linejoin:round;stroke-dasharray:1, 3;stroke-opacity:0.972549;paint-order:stroke fill markers"
       x="74.347916"
       y="-13.361458"
       id="text2"><tspan
         sodipodi:role="line"
         id="tspan2"
         style="stroke-width:1"
         x="74.347916"
         y="-13.361458" /></text><path
       style="fill:none;fill-opacity:1;stroke:#404040;stroke-width:0.5;stroke-linecap:round;stroke-dasharray:none;stroke-opacity:1;marker-end:url(#Triangle)"
       id="path1"
       sodipodi:type="arc"
       sodipodi:cx="6.0867825"
       sodipodi:cy="2.5158288"
       sodipodi:rx="2.3140619"
       sodipodi:ry="2.5175459"
       sodipodi:start="2.0901784"
       sodipodi:end="4.6754528"
       sodipodi:arc-type="arc"
       d="M 4.9382122,4.7013761 A 2.3140619,2.5175459 0 0 1 3.8397206,1.9144114 2.3140619,2.5175459 0 0 1 6.0013293,3.4735525e-8"
       sodipodi:open="true" /></g></svg>
