<?xml version="1.0" encoding="UTF-8" standalone="no"?>
<svg
   width="128"
   height="128"
   viewBox="0 0 24 24"
   version="1.1"
   id="svg1"
   sodipodi:docname="mui.svg"
   inkscape:version="1.4 (e7c3feb100, 2024-10-09)"
   xmlns:inkscape="http://www.inkscape.org/namespaces/inkscape"
   xmlns:sodipodi="http://sodipodi.sourceforge.net/DTD/sodipodi-0.dtd"
   xmlns="http://www.w3.org/2000/svg"
   xmlns:svg="http://www.w3.org/2000/svg">
  <defs
     id="defs1" />
  <sodipodi:namedview
     id="namedview1"
     pagecolor="#505050"
     bordercolor="#ffffff"
     borderopacity="1"
     inkscape:showpageshadow="0"
     inkscape:pageopacity="0"
     inkscape:pagecheckerboard="1"
     inkscape:deskcolor="#505050"
     inkscape:zoom="7.0625"
     inkscape:cx="64.070796"
     inkscape:cy="64"
     inkscape:window-width="1920"
     inkscape:window-height="1128"
     inkscape:window-x="0"
     inkscape:window-y="0"
     inkscape:window-maximized="1"
     inkscape:current-layer="svg1" />
  <path
     fill="currentColor"
     d="M20.229 15.793a.7.7 0 0 0 .244-.243a.7.7 0 0 0 .09-.333l.012-3.858a.7.7 0 0 1 .09-.333a.7.7 0 0 1 .245-.243L23 9.58a.7.7 0 0 1 .333-.088a.7.7 0 0 1 .333.09a.7.7 0 0 1 .244.243a.7.7 0 0 1 .089.333v7.014a.67.67 0 0 1-.335.578l-7.893 4.534a.67.67 0 0 1-.662 0l-6.194-3.542a.67.67 0 0 1-.246-.244a.67.67 0 0 1-.09-.335v-3.537q.001-.007.008-.004q.01.003.008-.005v-.004q0-.004.004-.007l5.102-2.93c.004-.003.002-.01-.003-.01l-.004-.002l-.001-.004l.01-3.467a.67.67 0 0 0-.333-.58a.67.67 0 0 0-.667 0L8.912 9.799a.67.67 0 0 1-.665 0l-3.804-2.19a.667.667 0 0 0-.999.577v6.267a.67.67 0 0 1-.332.577a.7.7 0 0 1-.332.09a.7.7 0 0 1-.333-.088L.336 13.825a.67.67 0 0 1-.246-.244a.67.67 0 0 1-.09-.336L.019 2.292a.667.667 0 0 1 .998-.577l7.23 4.153a.67.67 0 0 0 .665 0l7.228-4.153a.7.7 0 0 1 .333-.088a.7.7 0 0 1 .333.09a.7.7 0 0 1 .244.244a.7.7 0 0 1 .088.333V13.25c0 .117-.03.232-.089.334a.67.67 0 0 1-.245.244l-3.785 2.18a.67.67 0 0 0-.245.245a.67.67 0 0 0-.089.334a.67.67 0 0 0 .09.334a.67.67 0 0 0 .247.244l2.088 1.189a.7.7 0 0 0 .33.087a.7.7 0 0 0 .332-.089zm.438-9.828a.67.67 0 0 0 .09.335a.67.67 0 0 0 .248.244a.67.67 0 0 0 .67-.008l2.001-1.2a.7.7 0 0 0 .237-.243a.7.7 0 0 0 .087-.329V2.32a.67.67 0 0 0-.091-.335a.67.67 0 0 0-.584-.33a.67.67 0 0 0-.334.094l-2 1.2a.7.7 0 0 0-.238.243a.7.7 0 0 0-.086.329z"
     id="path1"
     style="fill:#0072e6;fill-opacity:1" />
</svg>
