<?xml version="1.0" encoding="UTF-8" standalone="no"?>
<!-- Created with Inkscape (http://www.inkscape.org/) -->

<svg
   width="210.00011mm"
   height="33.685463mm"
   viewBox="0 0 210.00011 33.685463"
   version="1.1"
   id="svg1"
   xml:space="preserve"
   inkscape:version="1.4 (e7c3feb100, 2024-10-09)"
   sodipodi:docname="banner.svg"
   xmlns:inkscape="http://www.inkscape.org/namespaces/inkscape"
   xmlns:sodipodi="http://sodipodi.sourceforge.net/DTD/sodipodi-0.dtd"
   xmlns:xlink="http://www.w3.org/1999/xlink"
   xmlns="http://www.w3.org/2000/svg"
   xmlns:svg="http://www.w3.org/2000/svg"><sodipodi:namedview
     id="namedview1"
     pagecolor="#505050"
     bordercolor="#ffffff"
     borderopacity="1"
     inkscape:showpageshadow="0"
     inkscape:pageopacity="0"
     inkscape:pagecheckerboard="1"
     inkscape:deskcolor="#505050"
     inkscape:document-units="mm"
     inkscape:zoom="2.1377871"
     inkscape:cx="468.00732"
     inkscape:cy="126.7666"
     inkscape:window-width="1920"
     inkscape:window-height="1128"
     inkscape:window-x="0"
     inkscape:window-y="0"
     inkscape:window-maximized="1"
     inkscape:current-layer="layer1"
     showgrid="false"><inkscape:grid
       id="grid33"
       units="mm"
       originx="-1.0728836e-06"
       originy="0"
       spacingx="0.99999998"
       spacingy="1"
       empcolor="#0099e5"
       empopacity="0.30196078"
       color="#0099e5"
       opacity="0.14901961"
       empspacing="5"
       enabled="true"
       visible="false" /></sodipodi:namedview><defs
     id="defs1"><pattern
       inkscape:collect="always"
       xlink:href="#pattern5-6"
       preserveAspectRatio="xMidYMid"
       id="pattern21"
       patternTransform="matrix(0.03275495,-0.03275495,0.03275495,0.03275495,343.7492,134.99692)"
       x="-6"
       y="-3" /><pattern
       inkscape:collect="always"
       xlink:href="#pattern5-6"
       preserveAspectRatio="xMidYMid"
       id="pattern20"
       patternTransform="matrix(-0.03275495,-0.03275495,0.03275495,-0.03275495,339.23835,134.55934)"
       x="0"
       y="0" /><pattern
       patternUnits="userSpaceOnUse"
       width="20"
       height="20"
       patternTransform="translate(525,250)"
       preserveAspectRatio="xMidYMid"
       style="fill:#1a1a19"
       id="pattern5-6"
       inkscape:label="Grid 1"
       inkscape:collect="always"
       inkscape:isstock="true"><path
         id="path1-2-7-2"
         style="display:inline;stroke-width:4.8561;stroke-linecap:square;paint-order:stroke markers fill;stop-color:#000000"
         d="m 10,10 v 5 l 5,5 h 5 V 15 L 15,10 Z M 0,20 v -5 l 5,-5 h 5 v 5 L 5,20 Z M 10,10 V 5 l 5,-5 h 5 v 5 l -5,5 z M 0,0 v 5 l 5,5 h 5 V 5 L 5,0 Z" /></pattern><linearGradient
       id="linearGradient5"
       inkscape:collect="always"><stop
         style="stop-color:#f2e2b1;stop-opacity:1;"
         offset="0.20310846"
         id="stop4" /><stop
         style="stop-color:#f2e2b1;stop-opacity:0.80000001;"
         offset="1"
         id="stop5" /></linearGradient><linearGradient
       id="linearGradient1"
       inkscape:collect="always"><stop
         style="stop-color:#f2e2b1;stop-opacity:1;"
         offset="0"
         id="stop1" /><stop
         style="stop-color:#f2e2b1;stop-opacity:1;"
         offset="1"
         id="stop2" /></linearGradient><linearGradient
       id="linearGradient24"><stop
         style="stop-color:#f9e4a3;stop-opacity:1;"
         offset="0"
         id="stop24" /><stop
         style="stop-color:#e9e4d3;stop-opacity:1;"
         offset="0.21608873"
         id="stop26" /><stop
         style="stop-color:#f9e4a3;stop-opacity:1;"
         offset="0.38157895"
         id="stop27" /><stop
         style="stop-color:#f9e4a3;stop-opacity:1;"
         offset="0.48854685"
         id="stop31" /><stop
         style="stop-color:#ffffff;stop-opacity:1;"
         offset="0.56883341"
         id="stop30" /><stop
         style="stop-color:#f9e4a3;stop-opacity:1;"
         offset="0.61368102"
         id="stop28" /><stop
         style="stop-color:#dcbd5c;stop-opacity:1;"
         offset="0.79520744"
         id="stop29" /><stop
         style="stop-color:#f9e4a3;stop-opacity:1;"
         offset="1"
         id="stop25" /></linearGradient><linearGradient
       xlink:href="#linearGradient24"
       id="linearGradient35"
       gradientUnits="userSpaceOnUse"
       x1="-13.801792"
       y1="148.06564"
       x2="112.66289"
       y2="148.06564"
       gradientTransform="matrix(0.20859453,0,0,0.20859453,3.128959,-18.672504)" /><linearGradient
       inkscape:collect="always"
       xlink:href="#linearGradient1"
       id="linearGradient2"
       x1="0"
       y1="20.559677"
       x2="210"
       y2="20.559677"
       gradientUnits="userSpaceOnUse"
       gradientTransform="matrix(1,0,0,0.82386364,1.0728836e-6,-0.09569701)" /><linearGradient
       inkscape:collect="always"
       xlink:href="#linearGradient5"
       id="linearGradient4"
       gradientUnits="userSpaceOnUse"
       gradientTransform="matrix(1,0,0,0.82386364,-1.0415007e-5,-0.09571266)"
       x1="0"
       y1="20.559677"
       x2="210"
       y2="20.559677" /></defs><g
     inkscape:label="Layer 1"
     inkscape:groupmode="layer"
     id="layer1"><rect
       style="font-variation-settings:'wdth' 75, 'wght' 300;fill:url(#linearGradient2);stroke-width:0.297716;stroke-linecap:round;paint-order:stroke fill markers"
       id="rect1"
       width="210"
       height="33.685349"
       x="1.0728836e-06"
       y="0"
       inkscape:transform-center-x="10.22176"
       inkscape:transform-center-y="-103.35277" /><path
       id="path1-2"
       style="fill:#1a1a19;fill-opacity:1;stroke-width:0.432533"
       d="M 198.27162,1.1560055e-4 198.61527,1.0718848 a 10.380807,10.380807 0 0 0 -1.10846,1.1125936 L 196.34099,1.845481 c -0.26357,-0.085056 -0.49956,5.699e-4 -0.66715,0.252181 a 0.53417898,0.53417898 0 0 0 0.016,0.6506062 l 0.77463,0.991154 c -0.2589,0.4545018 -0.45451,0.9337717 -0.63665,1.4412557 l -1.24592,0.076998 c -0.26346,0.017089 -0.47047,0.1813392 -0.52503,0.4413167 -0.0549,0.2608712 0.04,0.4851293 0.26665,0.6144328 l 1.048,0.6769613 c -0.0795,0.5074596 -0.13911,1.0231565 -0.11317,1.5709635 l -1.1317,0.4935098 c -0.25332,0.1073802 -0.37529,0.3136525 -0.34726,0.5860108 0.0279,0.2719188 0.18968,0.4493092 0.46095,0.5131472 l 1.2082,0.252698 c 0.085,0.531284 0.24992,1.044179 0.43098,1.515153 l -0.88935,0.86558 c -0.19551,0.18318 -0.24078,0.432492 -0.13436,0.675928 0.10694,0.243788 0.34306,0.361913 0.60409,0.325045 l 1.23455,-0.187586 c 0.28209,0.459722 0.57023,0.889204 0.90589,1.282092 l -0.53743,1.115178 c -0.12819,0.237567 -0.0806,0.497537 0.10903,0.661458 0.21532,0.212216 0.46309,0.237697 0.70487,0.111105 l 1.07022,-0.589112 c 0.41185,0.334604 0.85963,0.624319 1.3131,0.873332 l -0.12764,1.236617 c -0.0236,0.267638 0.0921,0.499826 0.32659,0.597896 0.26622,0.115219 0.50412,0.04995 0.67696,-0.150895 l 0.81391,-0.909505 c 0.50582,0.161885 1.01911,0.302984 1.53685,0.381889 l 0.29714,1.20251 c 0.068,0.268247 0.25843,0.432407 0.51573,0.45682 0.28641,0.0114 0.4963,-0.13244 0.58446,-0.365869 l 0.46044,-1.168404 c 0.27444,-0.0078 0.53008,-0.0036 0.80202,-0.03152 v -5.17e-4 c 0.26246,-0.02701 0.50126,-0.08198 0.77153,-0.130224 l 0.69918,1.049031 c 0.13339,0.210664 0.36789,0.308721 0.63562,0.240296 0.24698,-0.07629 0.40976,-0.276455 0.41186,-0.551905 l 0.0558,-1.2392 c 0.43362,-0.163808 0.86063,-0.380274 1.27951,-0.612366 V 15.24725 c -1.13043,0.823787 -2.49415,1.368305 -4.01164,1.524455 -1.34114,0.138003 -2.62325,-0.04632 -3.77858,-0.47749 l 2.46497,-5.155758 c 0.32111,0.04874 0.53568,0.04656 0.70693,0.02894 1.16942,-0.120341 2.02388,-0.931556 2.35386,-2.2799646 L 210.0001,8.6543677 V 7.329384 l -2.39934,0.2470133 c -0.60489,-1.2217697 -1.60409,-1.8220537 -2.76365,-1.7027384 -0.17166,0.017674 -0.37128,0.058419 -0.68678,0.1617472 l -3.40289,-4.6431274 c 1.02413,-0.64543054 2.22416,-1.06450851 3.53518,-1.19941 2.14401,-0.22062002 4.143,0.37751927 5.71748,1.5420247 V 1.1560055e-4 Z m 1.38803,2.20761719945 3.42563,4.6715494 c -0.48657,0.6209834 -0.67467,1.2614817 -0.6072,1.9171957 0.0653,0.6350688 0.36708,1.1957527 0.98185,1.7234091 l -2.48253,5.187797 c -2.19194,-1.293274 -3.74383,-3.599712 -4.03025,-6.383073 h 5.2e-4 c -0.2885,-2.8035866 0.77782,-5.4099222 2.71198,-7.1168782 z m 5.59656,5.0839274 c 0.5788,0.05336 1.06122,0.4932245 1.12292,1.0929565 0.0695,0.6755106 -0.43804,1.2885627 -1.12344,1.3590902 -0.64538,0.066409 -1.28802,-0.4282962 -1.35754,-1.1038086 -0.0705,-0.6854031 0.45997,-1.2802814 1.10536,-1.3466878 0.0857,-0.00882 0.17001,-0.00917 0.2527,-0.00155 z" /><g
       id="g53"
       transform="matrix(0.34690909,0,0,0.34690909,114.06319,-15.429801)"><path
         style="opacity:1;fill:none;fill-opacity:1;stroke:#1a1a19;stroke-width:2;stroke-linecap:round;stroke-linejoin:round;stroke-dasharray:none;stroke-opacity:1;paint-order:stroke fill markers"
         d="m 101.80626,132.11407 c 3.12112,1.56057 4.50083,0.24726 4.50083,0.24726 l 2.49813,-2.24766 m 8.4599,-5.62624 16.45057,5.3474 c 0,0 -2.01959,1.83917 -0.0413,2.6491 2.20211,0.90157 4.25073,-1.66348 4.25073,-1.66348 0,0 1.86548,-2.286 5.01377,-5.79199 m 5.60455,-5.92398 c 0.97037,-1.12477 1.97486,-2.30795 2.69215,-3.2385 2.1489,-2.78776 -4.2544,-4.16815 -4.2544,-4.16815 l -8.04981,-1.91578"
         id="path26"
         sodipodi:nodetypes="cccccscccscc" /><path
         style="opacity:1;fill:none;fill-opacity:1;stroke:#1a1a19;stroke-width:2;stroke-linecap:round;stroke-linejoin:round;stroke-dasharray:none;stroke-opacity:1;paint-order:stroke fill markers"
         d="m 111.41604,105.44075 c -0.39014,0.84188 -1.95071,2.56672 -2.13551,3.96301 -0.18481,1.39629 -0.47228,1.97124 -1.02669,2.58725 -0.55441,0.61601 -1.14989,1.66323 -1.33469,2.11497 -0.18481,0.45175 -3.039,4.57903 -4.10675,5.97532 -1.06779,1.3963 -1.02669,4.88703 -1.02669,4.88703 0,0 0.0206,7.14574 -0.0821,9.13752 -0.10267,1.99178 -1.786438,1.25256 -1.786438,1.25256 0,0 -31.888895,-12.27918 -33.572661,-12.91573 -1.683769,-0.63654 -2.051963,-2.80162 -2.051963,-2.80162 l -0.755015,-7.08554 c 0,0 -0.517601,-2.93816 0.527733,-4.05524 1.644338,-1.75719 6.160121,-6.28333 6.611864,-7.06361 0.451742,-0.78028 0.246404,-2.135508 0.821349,-2.751521"
         id="path27"
         sodipodi:nodetypes="csssscscsccssc" /><path
         style="opacity:1;fill:none;fill-opacity:1;stroke:#1a1a19;stroke-width:2;stroke-linecap:round;stroke-linejoin:round;stroke-dasharray:none;stroke-opacity:1;paint-order:stroke fill markers"
         d="m 71.498478,98.685148 38.735252,8.587232 c 0,0 2.00369,-2.55031 2.37329,-4.43942 0.36961,-1.8891 0.0821,-7.884951 3.20327,-10.84181 3.12112,-2.956859 5.79051,-2.29978 8.21349,-6.652932 2.42298,-4.353153 7.92602,-13.798672 9.19912,-14.168279 l 1.27309,-0.369607 -34.784156,-1.889104 c 0,0 -1.026686,-0.123203 -2.587249,1.642698 -1.560565,1.765903 -10.061533,11.622095 -10.061533,11.622095 0,0 -1.4699,1.383608 -2.617374,1.775994 -1.85971,0.635939 -5.642338,1.243699 -7.845536,4.526325 -1.644156,2.449688 -1.505051,5.49216 -2.492381,6.653723 -0.987327,1.161566 -2.609283,3.553085 -2.609283,3.553085 z"
         id="path28"
         sodipodi:nodetypes="ccscssccscsssc" /><path
         style="opacity:1;fill:none;fill-opacity:1;stroke:#1a1a19;stroke-width:2;stroke-linecap:round;stroke-linejoin:round;stroke-dasharray:none;stroke-opacity:1;paint-order:stroke fill markers"
         d="m 134.49599,70.800332 c 0,0 0.45174,-0.164272 1.49896,0.636545 1.04722,0.800815 0.67761,3.963011 0.67761,3.963011 l -0.3391,5.828386 m -0.49366,5.894936 -0.82293,11.742077 m -0.99717,9.520583 -7.26529,6.49026 m -5.77877,4.96569 -3.75156,3.55732"
         id="path29"
         sodipodi:nodetypes="cscccccccc" /><path
         style="opacity:1;fill:none;fill-opacity:1;stroke:#1a1a19;stroke-width:1.5;stroke-linecap:round;stroke-linejoin:round;stroke-dasharray:none;stroke-opacity:1;paint-order:stroke fill markers"
         d="M 97.740596,112.85343 71.868085,105.62555"
         id="path30" /><path
         style="opacity:1;fill:none;fill-opacity:1;stroke:#1a1a19;stroke-width:1;stroke-linecap:round;stroke-linejoin:round;stroke-dasharray:none;stroke-opacity:1;paint-order:stroke fill markers"
         d="m 99.836699,100.28577 c 0,0 0.774571,-1.444694 1.276261,-4.020023 0.50677,-2.601409 1.43143,-5.274149 3.48469,-6.745576 2.19893,-1.575815 5.61736,-2.620137 5.61736,-2.620137"
         id="path31"
         sodipodi:nodetypes="cssc" /><path
         style="opacity:1;fill:none;fill-opacity:1;stroke:#1a1a19;stroke-width:1.5;stroke-linecap:round;stroke-linejoin:round;stroke-dasharray:none;stroke-opacity:1;paint-order:stroke fill markers"
         d="M 118.11637,82.017739 93.722294,79.471551"
         id="path33"
         sodipodi:nodetypes="cc" /><path
         style="opacity:1;fill:none;fill-opacity:1;stroke:#1a1a19;stroke-width:1.5;stroke-linecap:round;stroke-linejoin:round;stroke-dasharray:none;stroke-opacity:1;paint-order:stroke fill markers"
         d="m 78.311966,119.84433 3.020066,0.98733 c 0,0 1.054039,0.0915 1.095105,1.54942 0.04107,1.4579 0.102669,2.93633 0.102669,2.93633 0,0 -0.0308,0.64681 -0.636546,0.65708 -0.605745,0.0103 -2.371648,-0.0103 -2.371648,-0.0103 l -1.796701,0.30801 c 0,0 -0.759748,0.154 -1.129355,0.0103 -0.369607,-0.14373 -2.905524,-1.11909 -2.905524,-1.11909 0,0 -0.390142,-0.0616 -0.431208,-0.86241 -0.04107,-0.80082 -0.05133,-1.6119 -0.05133,-1.6119 0,0 -0.0616,-0.45174 0.287472,-0.82135 0.349073,-0.36961 1.078222,-1.41359 1.150819,-1.66042 0.0726,-0.24683 0.210534,-0.98007 0.210534,-0.98007 0,0 0,-0.35573 0.537223,-0.19601 0.537223,0.15971 2.918424,0.81308 2.918424,0.81308 z"
         id="path34"
         sodipodi:nodetypes="ccscsccscscsscscc" /><path
         style="opacity:1;fill:none;fill-opacity:1;stroke:#1a1a19;stroke-width:1;stroke-linecap:round;stroke-linejoin:round;stroke-dasharray:none;stroke-opacity:1;paint-order:stroke fill markers"
         d="m 84.043257,97.226216 c 0,0 0.774576,-1.4447 1.276266,-4.020029 0.50677,-2.601409 1.43143,-5.274149 3.48469,-6.745576 2.19893,-1.575815 4.078964,-2.686293 4.078964,-2.686293"
         id="path35"
         sodipodi:nodetypes="cssc" /><path
         style="opacity:1;fill:none;fill-opacity:1;stroke:#1a1a19;stroke-width:1;stroke-linecap:round;stroke-linejoin:round;stroke-dasharray:none;stroke-opacity:1;paint-order:stroke fill markers"
         d="m 85.738984,97.580847 c 0,0 0.774576,-1.4447 1.276266,-4.020029 0.50677,-2.601409 1.43143,-5.274149 3.48469,-6.745576 2.19893,-1.575815 4.2227,-2.645225 4.2227,-2.645225"
         id="path36"
         sodipodi:nodetypes="cssc" /><path
         style="opacity:1;fill:none;fill-opacity:1;stroke:#1a1a19;stroke-width:1;stroke-linecap:round;stroke-linejoin:round;stroke-dasharray:none;stroke-opacity:1;paint-order:stroke fill markers"
         d="m 87.402217,97.940187 c 0,0 0.774576,-1.4447 1.276266,-4.020029 0.50677,-2.601409 1.43143,-5.274149 3.48469,-6.745576 2.19893,-1.575815 4.489639,-2.788961 4.489639,-2.788961"
         id="path37"
         sodipodi:nodetypes="cssc" /><path
         style="opacity:1;fill:none;fill-opacity:1;stroke:#1a1a19;stroke-width:1;stroke-linecap:round;stroke-linejoin:round;stroke-dasharray:none;stroke-opacity:1;paint-order:stroke fill markers"
         d="m 89.147584,98.258459 c 0,0 0.774576,-1.4447 1.276266,-4.020029 0.50677,-2.601409 1.43143,-5.274149 3.48469,-6.745576 2.19893,-1.575815 4.510173,-2.768428 4.510173,-2.768428"
         id="path38"
         sodipodi:nodetypes="cssc" /><path
         style="opacity:1;fill:none;fill-opacity:1;stroke:#1a1a19;stroke-width:1;stroke-linecap:round;stroke-linejoin:round;stroke-dasharray:none;stroke-opacity:1;paint-order:stroke fill markers"
         d="m 90.800549,98.586999 c 0,0 0.774576,-1.4447 1.276266,-4.020029 0.50677,-2.601409 1.43143,-5.274149 3.48469,-6.745576 2.19893,-1.575815 4.633385,-2.72736 4.633385,-2.72736"
         id="path39"
         sodipodi:nodetypes="cssc" /><path
         style="opacity:1;fill:none;fill-opacity:1;stroke:#1a1a19;stroke-width:1;stroke-linecap:round;stroke-linejoin:round;stroke-dasharray:none;stroke-opacity:1;paint-order:stroke fill markers"
         d="m 92.556185,98.884738 c 0,0 0.774576,-1.4447 1.276266,-4.020029 0.50677,-2.601409 1.43143,-5.274149 3.48469,-6.745576 2.19893,-1.575815 4.797649,-2.72736 4.797649,-2.72736"
         id="path40"
         sodipodi:nodetypes="cssc" /><path
         style="opacity:1;fill:none;fill-opacity:1;stroke:#1a1a19;stroke-width:1;stroke-linecap:round;stroke-linejoin:round;stroke-dasharray:none;stroke-opacity:1;paint-order:stroke fill markers"
         d="m 94.332355,99.223545 c 0,0 0.774576,-1.4447 1.276266,-4.020029 0.50677,-2.601409 1.43143,-5.274149 3.48469,-6.745576 2.198919,-1.575815 4.941379,-2.72736 4.941379,-2.72736"
         id="path41"
         sodipodi:nodetypes="cssc" /><path
         style="opacity:1;fill:none;fill-opacity:1;stroke:#1a1a19;stroke-width:1;stroke-linecap:round;stroke-linejoin:round;stroke-dasharray:none;stroke-opacity:1;paint-order:stroke fill markers"
         d="m 96.129057,99.582885 c 0,0 0.774576,-1.444699 1.276266,-4.020028 0.50677,-2.601409 1.43143,-5.274149 3.484687,-6.745576 2.19892,-1.575815 5.20832,-2.706827 5.20832,-2.706827"
         id="path42"
         sodipodi:nodetypes="cssc" /><path
         style="opacity:1;fill:none;fill-opacity:1;stroke:#1a1a19;stroke-width:1;stroke-linecap:round;stroke-linejoin:round;stroke-dasharray:none;stroke-opacity:1;paint-order:stroke fill markers"
         d="m 97.966826,99.911427 c 0,0 0.774576,-1.4447 1.276266,-4.020029 0.50677,-2.601409 1.431428,-5.274149 3.484688,-6.745576 2.19892,-1.575815 5.47526,-2.72736 5.47526,-2.72736"
         id="path43"
         sodipodi:nodetypes="cssc" /><path
         style="opacity:1;fill:none;fill-opacity:1;stroke:#1a1a19;stroke-width:2;stroke-linecap:square;stroke-linejoin:round;stroke-dasharray:none;stroke-opacity:1;paint-order:stroke fill markers"
         d="m 120.338,97.135764 c 0,0 7.7244,1.771381 13.2999,1.887539 5.57551,0.116157 6.3886,-0.290391 6.09821,3.368537 -0.29039,3.65893 -2.90391,15.91342 -2.90391,15.91342 0,0 2.61352,1.27772 5.16896,1.21964 2.55544,-0.0581 6.27244,-1.16156 8.42134,0.11616 2.14889,1.27772 0.98733,5.40127 0.98733,5.40127 0,0 -1.36484,3.94932 -4.5301,2.61352 -3.16526,-1.3358 -2.70064,-2.14889 -4.44298,-3.02007 -1.74235,-0.87117 -8.30518,-2.75871 -8.85692,-2.9039 -0.55175,-0.1452 0.14519,-1.36484 0.20327,-4.38491 0.0581,-3.02006 0.5227,-11.84795 0.5227,-11.84795 0,0 -2.03273,0.23232 -3.0491,-0.55174 -1.01637,-0.78405 -1.481,-1.13252 -1.481,-1.13252 l -10.83158,-2.03274"
         id="path44"
         sodipodi:nodetypes="csscsscsssscscc" /><path
         style="opacity:1;fill:none;fill-opacity:1;stroke:#1a1a19;stroke-width:2;stroke-linecap:butt;stroke-linejoin:round;stroke-dasharray:none;stroke-opacity:1;paint-order:stroke fill markers"
         d="m 112.94469,111.99623 c 1.59479,-4.50705 1.88076,-13.029026 5.1059,-19.234197 1.51705,-2.918804 3.39088,-3.328095 3.39088,-3.328095 l 6.67899,0.871175 c 0,0 1.79713,-0.04734 1.65945,2.622084 -0.12951,2.511013 -1.55143,2.652648 -1.55143,2.652648 l -6.96094,-1.067756 c 0,0 -2.25399,3.515978 -3.19855,8.936891 -0.81754,4.69197 -1.08734,6.64678 -1.19575,9.53366 m -0.0411,5.6393 c 0.87529,3.29214 0.33711,5.95277 -0.63681,8.9729 m 0,0 c -1.25212,3.88281 -5.51573,5.50427 -7.7397,2.07089 -2.0042,-3.09411 -0.27392,-8.13628 1.13132,-9.4908"
         id="path46"
         sodipodi:nodetypes="csccsccsccccsc" /><path
         style="opacity:1;fill:none;fill-opacity:1;stroke:#1a1a19;stroke-width:1.5;stroke-linecap:square;stroke-linejoin:round;stroke-dasharray:none;stroke-opacity:1;paint-order:stroke fill markers"
         d="m 112.49745,117.46313 3.8622,0.84213 c 0,0 1.77139,0.31943 2.26505,-1.94562 0.49367,-2.26505 -1.3358,-2.81679 -1.3358,-2.81679 l -6.7661,-1.45196 c 0,0 -1.21965,-0.69693 -2.32313,0.52271 -1.1035,1.21964 0.0621,3.2606 0.0621,3.2606 l 4.39422,11.17036 c 0,0 1.17725,2.73114 3.26807,0.0305 2.09081,-2.70064 0.26135,-5.54647 0.26135,-5.54647 l -1.77139,-2.87487"
         id="path47"
         sodipodi:nodetypes="ccsccscc" /><path
         style="opacity:1;fill:none;fill-opacity:1;stroke:#1a1a19;stroke-width:2;stroke-linecap:butt;stroke-linejoin:round;stroke-dasharray:none;stroke-opacity:1;paint-order:stroke fill markers"
         d="m 128.85873,90.535986 6.56638,-9.262638 7.0181,0.784663 c 0,0 0.96442,0.754556 0.67694,2.376722 -0.2551,1.439508 -1.51949,1.601633 -1.51949,1.601633 l -4.9281,-0.65708 -4.68169,8.249852 c -0.85303,1.563757 -1.93611,2.27722 -2.87472,1.745368"
         id="path48"
         sodipodi:nodetypes="cccscccc" /><path
         style="fill:none;stroke:#1a1a19;stroke-width:1.5;stroke-linecap:round;stroke-linejoin:round;stroke-dasharray:none;stroke-opacity:1;paint-order:stroke fill markers"
         d="m 100.39648,71.947266 a 1.5,1.5 0 0 0 -1.603511,1.386718 1.5,1.5 0 0 0 1.386721,1.605469 L 121.57422,76.5 a 1.5,1.5 0 0 0 1.60547,-1.388672 1.5,1.5 0 0 0 -1.38672,-1.603516 z"
         id="path49" /><path
         style="opacity:1;fill:none;fill-opacity:1;stroke:#1a1a19;stroke-width:1.5;stroke-linecap:round;stroke-linejoin:round;stroke-dasharray:none;stroke-opacity:1;paint-order:stroke fill markers"
         d="m 133.42824,133.48984 -16.6734,-5.68785"
         id="path50"
         sodipodi:nodetypes="cc" /><path
         style="opacity:1;fill:none;fill-opacity:1;stroke:#1a1a19;stroke-width:1.5;stroke-linecap:round;stroke-linejoin:round;stroke-dasharray:none;stroke-opacity:1;paint-order:stroke fill markers"
         d="m 137.63455,116.80598 c 2.5183,-3.73175 8.26558,-2.91833 9.2868,-2.0224 0.7067,0.62 -3.41015,1.23208 -5.3703,4.26218"
         id="path52"
         sodipodi:nodetypes="csc" /><path
         style="opacity:1;fill:none;fill-opacity:1;stroke:#1a1a19;stroke-width:2;stroke-linecap:round;stroke-linejoin:round;stroke-dasharray:none;stroke-opacity:1;paint-order:stroke fill markers"
         d="m 121.20215,119.59358 0.0701,-2.83874 c 0,0 -0.1232,-2.58725 2.75152,-2.29978 2.87472,0.28747 6.65293,1.31416 6.65293,1.31416 0,0 2.70895,0.49891 2.76703,2.3002 0.0739,2.29363 -0.10122,5.84562 -0.10122,5.84562 0,0 1.85658,1.12484 1.03027,2.69599 -0.79726,1.5159 -2.41875,2.53709 -4.59272,1.9448"
         id="path53"
         sodipodi:nodetypes="ccscscsc" /></g><path
       id="rect10"
       style="fill:none;fill-opacity:0.5;stroke:#1a1a19;stroke-width:0.463225;stroke-linecap:round;stroke-dasharray:none;stroke-opacity:1;paint-order:stroke fill markers"
       d="m 172.6013,24.275826 c -0.0925,0 -0.16703,0.07455 -0.16703,0.167039 v 4.136701 c 0,0.09249 0.0745,0.167039 0.16703,0.167039 h 2.03122 v 2.159298 c 0,0.139729 0.0791,0.172214 0.17727,0.07279 l 1.84387,-1.867144 c 0.0982,-0.09942 0.17711,-0.291899 0.17711,-0.431628 v -0.04737 c 0.006,-0.0167 0.009,-0.03436 0.009,-0.05298 v -4.136706 c 0,-0.09249 -0.0745,-0.167039 -0.16703,-0.167039 z" /><path
       id="rect12"
       style="fill:none;fill-opacity:0.75;stroke:#1a1a19;stroke-width:0.463225;stroke-linecap:round;stroke-dasharray:none;stroke-opacity:1;paint-order:stroke fill markers"
       d="m 179.80133,21.975733 c -0.0283,0.0015 -0.0624,0.02016 -0.0992,0.05744 l -1.84388,1.867144 c -0.0982,0.09942 -0.17711,0.292064 -0.17711,0.431793 v 0.04721 c -0.006,0.01671 -0.009,0.03434 -0.009,0.05298 v 4.136701 c 0,0.09249 0.0745,0.167039 0.16704,0.167039 h 4.07183 c 0.0925,0 0.16704,-0.07455 0.16704,-0.167039 V 24.4323 c 0,-0.09249 -0.0745,-0.167039 -0.16704,-0.167039 h -2.03121 v -2.159298 c 0,-0.08733 -0.0309,-0.132716 -0.0781,-0.130231 z" /><path
       id="rect14"
       style="fill:url(#pattern20);fill-opacity:1;stroke:#1a1a19;stroke-width:0.463225;stroke-linecap:round;stroke-dasharray:none;stroke-opacity:1;paint-order:stroke fill markers"
       d="m 176.75276,24.60702 c -0.0283,0.0015 -0.0624,0.02016 -0.0992,0.05744 l -1.84371,1.867144 c -0.0982,0.09942 -0.17727,0.292064 -0.17727,0.431793 v 1.806898 h 2.04062 c 0.0739,0 0.13551,-0.04781 0.15763,-0.114056 v -3.918988 c 0,-0.08733 -0.0309,-0.132717 -0.0781,-0.130232 z" /><g
       id="rect15"
       transform="translate(-4.5108588,-0.43757555)"><path
         style="fill:#1a1a19;stroke-linecap:round;paint-order:stroke fill markers"
         d="m 182.34961,24.470703 c -0.17389,0 -0.32442,0.116309 -0.37695,0.273438 l -0.0117,0.03516 v 3.957031 c 0,0.05673 0.005,0.112755 0.0312,0.173828 0.0258,0.06107 0.0814,0.132013 0.16406,0.166016 0.0827,0.034 0.17109,0.0214 0.23242,-0.0039 0.0613,-0.02531 0.10465,-0.06119 0.14453,-0.101563 l 1.84375,-1.867187 c 0.15964,-0.16162 0.24414,-0.366644 0.24414,-0.59375 v -2.039063 z m 0.0742,0.462891 h 1.73437 v 1.576172 c 0,0.05235 -0.0726,0.232311 -0.10937,0.269531 l -1.625,1.646484 z"
         id="path79" /><path
         style="fill:url(#pattern21);stroke-linecap:round;paint-order:stroke fill markers"
         d="m 182.34964,24.702837 c -0.0738,0 -0.1355,0.04784 -0.15764,0.114056 v 3.918988 c 0,0.139729 0.0789,0.172214 0.17711,0.07279 l 1.84388,-1.867144 c 0.0982,-0.09942 0.17727,-0.292064 0.17727,-0.431794 v -1.806897 z"
         id="path80" /></g><path
       fill="currentColor"
       d="M 102.40098,7.5563575 V 8.564727 H 94.334027 V 7.5563575 Z M 99.375884,9.5731 v 1.008373 H 94.334027 V 9.5731 Z m 3.025096,0 v 1.008373 h -2.01673 V 9.5731 Z m -5.041843,2.016744 v 1.008373 h -3.02511 v -1.008373 z m 5.041843,0 v 1.008373 h -4.033466 v -1.008373 z m -2.01673,2.016746 v 1.00837 h -6.050223 v -1.00837 z"
       id="path1-5"
       style="stroke-width:0.504186" /><path
       d="m 117.39163,11.258996 h -0.26192 c -0.10913,1.11316 -0.26192,2.466414 -2.18267,2.466414 h -0.87307 c -0.50201,0 -0.52384,-0.06548 -0.52384,-0.436534 V 7.5048082 c 0,-0.371054 0,-0.523841 1.02585,-0.523841 h 0.34924 v -0.3274 c -0.41471,0.02183 -1.37509,0.02183 -1.83345,0.02183 -0.4147,0 -1.26595,0 -1.637,-0.02183 v 0.3274 h 0.24009 c 0.82942,0 0.85125,0.109133 0.85125,0.502013 v 5.6967618 c 0,0.39288 -0.0219,0.502014 -0.85125,0.502014 h -0.24009 v 0.3274 h 5.63128 z"
       id="path1-3"
       style="stroke-width:0.218266;fill:#1a1a19;fill-opacity:1" /><path
       d="m 117.19518,6.6317402 c -0.0436,-0.13096 -0.0655,-0.174613 -0.19643,-0.174613 -0.13096,0 -0.17462,0.04366 -0.21827,0.174613 l -1.74613,4.4308158 c -0.0655,0.174614 -0.19645,0.52384 -0.87308,0.52384 v 0.26192 h 1.68067 v -0.26192 c -0.32741,0 -0.54567,-0.152786 -0.54567,-0.371053 0,-0.04366 0,-0.06548 0.0218,-0.152787 l 0.37106,-0.938547 h 2.16083 l 0.43654,1.113161 c 0.0219,0.04366 0.0436,0.08731 0.0436,0.13096 0,0.218266 -0.4147,0.218266 -0.61115,0.218266 v 0.26192 h 2.13902 v -0.26192 h -0.15274 c -0.50201,0 -0.56749,-0.06548 -0.63297,-0.283746 z m -0.4147,0.78576 0.96037,2.4664155 h -1.94257 z"
       id="path2"
       style="stroke-width:0.218266;fill:#1a1a19;fill-opacity:1" /><path
       d="m 125.90403,6.7190472 h -6.61349 l -0.19643,2.4227615 h 0.26192 c 0.15279,-1.7461345 0.30557,-2.1171885 1.9644,-2.1171885 0.19644,0 0.48018,0 0.58932,0.02183 0.21827,0.04366 0.21827,0.152787 0.21827,0.414707 V 13.15792 c 0,0.371053 0,0.52384 -1.13499,0.52384 h -0.43653 v 0.327399 c 0.43653,-0.02183 1.54969,-0.02183 2.0517,-0.02183 0.50201,0 1.61518,0 2.07353,0.02183 v -0.3274 h -0.43653 c -1.13499,0 -1.13499,-0.152786 -1.13499,-0.52384 V 7.4829822 c 0,-0.218266 0,-0.371053 0.19645,-0.414706 0.10913,-0.02183 0.4147,-0.02183 0.61114,-0.02183 1.637,0 1.78979,0.349226 1.94258,2.1171875 h 0.26192 z"
       id="path3"
       style="stroke-width:0.218266;fill:#1a1a19;fill-opacity:1" /><path
       d="m 131.73175,13.703584 h -0.26192 c -0.26192,1.658827 -0.52384,2.466414 -2.37911,2.466414 h -1.44056 c -0.50201,0 -0.52384,-0.06548 -0.52384,-0.436535 v -2.902946 h 0.96038 c 1.04768,0 1.17864,0.349226 1.17864,1.265947 h 0.26192 V 11.23717 h -0.26192 c 0,0.91672 -0.10914,1.265946 -1.17864,1.265946 h -0.96038 V 9.8839147 c 0,-0.349226 0.0219,-0.436533 0.52384,-0.436533 h 1.39691 c 1.65883,0 1.94258,0.5893203 2.11719,2.1171883 h 0.26192 l -0.30557,-2.4445883 h -6.08965 v 0.3274 h 0.2401 c 0.82941,0 0.85124,0.109134 0.85124,0.502014 v 5.6749353 c 0,0.392881 -0.0219,0.502012 -0.85124,0.502012 h -0.2401 v 0.371054 h 6.24243 z"
       id="path4"
       style="stroke-width:0.218266;fill:#1a1a19;fill-opacity:1" /><path
       d="m 135.00575,9.8620887 1.48422,-2.1826685 c 0.21826,-0.349226 0.58931,-0.698453 1.57152,-0.698453 v -0.3274 h -2.59738 v 0.3274 c 0.43653,0 0.67663,0.240093 0.67663,0.502013 0,0.109134 -0.0219,0.13096 -0.0873,0.240094 l -1.24412,1.8334415 -1.39691,-2.0953615 c -0.0219,-0.02183 -0.0655,-0.109134 -0.0655,-0.152786 0,-0.13096 0.2401,-0.305574 0.69846,-0.327401 v -0.3274 c -0.37105,0.02183 -1.15681,0.02183 -1.57152,0.02183 -0.3274,0 -1.00403,0 -1.41874,-0.02183 v 0.3274 h 0.19644 c 0.58932,0 0.80759,0.06548 1.00403,0.371053 l 1.98623,3.0120818 -1.76796,2.619201 c -0.15279,0.218268 -0.48019,0.720281 -1.57152,0.720281 v 0.3274 h 2.59737 v -0.3274 c -0.50201,0 -0.67663,-0.305573 -0.67663,-0.502013 0,-0.08731 0.0219,-0.130961 0.10914,-0.261921 l 1.52787,-2.269974 1.7243,2.597375 c 0.0219,0.04366 0.0436,0.08731 0.0436,0.109132 0,0.13096 -0.2401,0.305574 -0.69845,0.327401 v 0.3274 c 0.37105,-0.02183 1.17864,-0.02183 1.57152,-0.02183 0.45835,0 0.96037,0 1.41873,0.02183 v -0.3274 h -0.19644 c -0.56749,0 -0.78576,-0.04366 -1.02586,-0.392881 z"
       id="path5"
       style="stroke-width:0.218266;fill:#1a1a19;fill-opacity:1" /><path
       fill="currentColor"
       d="m 172.50779,13.562696 q 0,0.661079 0.1896,0.887509 0.19001,0.226429 0.68998,0.226429 0.51779,0 1.32849,-0.522134 l 0.3448,0.573992 q -1.51811,1.270697 -2.50102,1.270302 -0.9837,0 -1.55255,-0.469882 -0.56924,-0.486902 -0.56924,-1.704951 V 9.2648875 h -0.86258 l -0.13809,-0.6436632 1.00073,-0.313122 V 7.4554279 l 2.06994,-0.957179 v 1.9139634 l 2.03548,-0.156363 -0.19002,1.1309602 -1.84546,-0.06968 z"
       id="path1-9"
       style="stroke-width:0.395855;fill:#1a1a19;fill-opacity:1" /><path
       fill="currentColor"
       d="m 106.06275,19.467758 v 0.345334 q 0.77951,0 1.00151,0.08881 c 0.222,0.08881 0.22204,0.263111 0.22204,0.611797 v 7.923431 q 0,0.52295 -0.222,0.611797 c -0.222,0.08885 -0.48188,0.08881 -1.00152,0.08881 v 0.345373 h 5.05204 q 0.69071,0 1.24819,-0.22695 c 0.55747,-0.226948 0.69234,-0.351919 0.96208,-0.601898 q 0.40453,-0.37495 0.62161,-0.863375 c 0.21709,-0.488423 0.21709,-0.662728 0.21709,-1.011374 q 0,-0.483513 -0.21709,-0.927515 c -0.21708,-0.444 -0.34205,-0.559151 -0.59204,-0.789373 q -0.37495,-0.345373 -0.88309,-0.557476 c -0.50814,-0.212102 -0.70551,-0.225273 -1.10018,-0.251616 q 0.52295,-0.09867 0.95714,-0.315757 c 0.43417,-0.217091 0.53775,-0.320706 0.74498,-0.527899 0.20723,-0.207192 0.36837,-0.439091 0.48347,-0.695656 q 0.17267,-0.384808 0.17267,-0.809091 0,-0.453899 -0.222,-0.89299 c -0.222,-0.439091 -0.35519,-0.554203 -0.62161,-0.784464 q -0.39962,-0.345373 -0.96208,-0.552566 c -0.56247,-0.207193 -0.78938,-0.207193 -1.24328,-0.207193 h -4.61785 z m 2.09183,4.617898 V 20.33612 q 0,-0.394668 0.074,-0.503232 c 0.074,-0.108565 0.22858,-0.108565 0.53775,-0.108565 h 1.82542 q 0.523,0 0.91271,0.192424 c 0.38972,0.192424 0.47689,0.292727 0.65124,0.493373 q 0.26147,0.30095 0.3947,0.675899 c 0.13323,0.37495 0.13319,0.493374 0.13319,0.730181 q 0,0.424283 -0.16281,0.833798 c -0.16281,0.409514 -0.26642,0.514727 -0.47365,0.725271 -0.20723,0.210544 -0.46212,0.381536 -0.76471,0.513092 q -0.45394,0.197372 -1.03608,0.197372 h -2.09184 z m 0.6118,4.96323 q -0.46375,0 -0.53775,-0.108564 c -0.074,-0.108565 -0.074,-0.240082 -0.074,-0.503232 v -4.094909 h 2.70364 q 0.55256,0 0.96203,0.222001 c 0.40948,0.222 0.49829,0.338748 0.67591,0.572322 q 0.26642,0.350321 0.39961,0.784425 c 0.13319,0.434102 0.13319,0.575595 0.13319,0.858424 q 0,0.394668 -0.148,0.809132 c -0.148,0.414462 -0.24834,0.529535 -0.44898,0.759796 q -0.30096,0.345373 -0.7598,0.567374 c -0.45885,0.222001 -0.66604,0.222001 -1.08047,0.222001 h -1.82541 z m 8.17996,-6.097939 q 0,-0.453898 0.17762,-0.577231 c 0.17761,-0.123335 0.43745,-0.123335 0.95713,-0.123335 v -0.345373 q -0.39467,0.06905 -0.89299,0.07891 c -0.49833,0.0099 -0.58713,0.0099 -0.76471,0.0099 q -0.25652,0 -0.7598,-0.0099 c -0.50327,-0.0099 -0.63151,-0.03289 -0.88808,-0.07891 v 0.345373 q 0.77951,0 0.91271,0.123335 c 0.1332,0.123333 0.1332,0.274645 0.1332,0.577231 v 5.397373 q 0,0.463758 -0.16282,0.582181 c -0.1628,0.118424 -0.40288,0.118385 -0.88309,0.118385 v 0.345373 h 3.30554 v -0.345373 q -0.77955,0 -0.95713,-0.118385 c -0.17758,-0.118384 -0.17762,-0.27297 -0.17762,-0.582181 v -5.397373 z m 2.00307,-1.045977 v 0.345372 q 0.72028,0 0.88313,0.123334 c 0.16285,0.123334 0.16281,0.274646 0.16281,0.577232 v 5.397373 q 0,0.463758 -0.16281,0.582182 c -0.16281,0.118423 -0.40289,0.118384 -0.88313,0.118384 v 0.345372 h 4.45014 q 0.62165,0 1.10513,-0.162808 c 0.48347,-0.162807 0.59531,-0.256564 0.81899,-0.444 q 0.33551,-0.281232 0.51309,-0.641373 c 0.17758,-0.360142 0.17762,-0.491698 0.17762,-0.754848 q 0,-0.355232 -0.17267,-0.6759 c -0.17267,-0.320667 -0.2697,-0.404565 -0.46376,-0.572322 q -0.29108,-0.251616 -0.69071,-0.424283 c -0.39961,-0.172667 -0.55092,-0.195697 -0.85351,-0.241758 q 0.77951,-0.128281 1.30251,-0.606808 c 0.52299,-0.478526 0.52299,-0.698929 0.52299,-1.139657 q 0,-0.355232 -0.18748,-0.685797 c -0.18748,-0.330565 -0.30095,-0.414424 -0.5279,-0.582181 q -0.34042,-0.251577 -0.82393,-0.404565 c -0.48353,-0.152988 -0.68086,-0.152949 -1.07557,-0.152949 z m 1.92409,3.483189 v -2.437212 q 0,-0.453898 0.10856,-0.532808 c 0.10857,-0.07891 0.23681,-0.07891 0.49337,-0.07891 h 1.40117 q 0.97689,0 1.27285,0.611796 c 0.29596,0.611798 0.296,0.697293 0.296,0.868323 q 0,0.394667 -0.37,0.981798 c -0.37,0.58713 -0.7647,0.58713 -1.55412,0.58713 h -1.64783 z m 0,0.266385 h 2.17078 q 0.91769,0 1.28769,0.641373 c 0.37001,0.641374 0.37001,0.792647 0.37001,1.095273 q 0,0.522949 -0.42428,1.090323 c -0.42429,0.567373 -0.74995,0.567373 -1.40118,0.567373 h -1.40117 q -0.38484,0 -0.49337,-0.108564 c -0.10853,-0.108565 -0.10857,-0.240082 -0.10857,-0.503232 v -2.782546 z"
       id="path1-0"
       style="stroke-width:0.0389679;fill:#1a1a19;fill-opacity:1" /><path
       fill="currentColor"
       d="m 185.45803,8.7167859 c -0.0198,0.01153 -0.10274,0.130493 -0.18447,0.2644867 -0.20496,0.336481 -0.20718,0.336652 -0.48252,0.04688 -0.17917,-0.1884797 -0.22247,-0.2229817 -0.28011,-0.2225547 -0.0376,1.71e-4 -0.085,0.01298 -0.10547,0.02835 -0.0204,0.01537 -0.0782,0.1376667 -0.12845,0.2718317 -0.11495,0.307445 -0.12041,0.317266 -0.18412,0.329563 -0.0393,0.0074 -0.1147,-0.03467 -0.29574,-0.164653 -0.13366,-0.09608 -0.26475,-0.174646 -0.29131,-0.174646 -0.11025,0 -0.14134,0.06029 -0.19386,0.3757657 -0.0666,0.401129 -0.0644,0.399763 -0.42598,0.235536 -0.14604,-0.06627 -0.28439,-0.120501 -0.3077,-0.120501 -0.0234,0 -0.0676,0.02511 -0.0982,0.05577 -0.0557,0.05568 -0.0558,0.05594 -0.0406,0.3626137 l 0.0152,0.307017 -0.0581,0.03109 c -0.0514,0.0275 -0.0868,0.02417 -0.31461,-0.02972 -0.2972,-0.0702 -0.36005,-0.06832 -0.42018,0.01281 l -0.0441,0.05918 0.0591,0.253129 c 0.0325,0.139204 0.0636,0.273284 0.0695,0.297794 0.006,0.02451 -0.004,0.06371 -0.0222,0.08711 -0.0297,0.03826 -0.0612,0.04176 -0.33639,0.03758 -0.4657,-0.0073 -0.49209,0.03262 -0.29976,0.452627 0.0612,0.133226 0.11136,0.25441 0.11136,0.268928 0,0.07678 -0.0612,0.104617 -0.32401,0.147573 -0.14706,0.02391 -0.27482,0.04356 -0.28404,0.04356 -0.009,0 -0.0367,0.02007 -0.0612,0.04458 -0.08,0.07994 -0.0573,0.155089 0.12409,0.411122 0.22597,0.318973 0.22563,0.320169 -0.14774,0.46296 -0.42453,0.162432 -0.43316,0.2024 -0.10992,0.50899 0.30104,0.285582 0.30147,0.281397 -0.0394,0.495669 -0.25826,0.162091 -0.26219,0.16602 -0.26876,0.253983 -0.008,0.107008 -0.006,0.108886 0.30215,0.297196 0.30488,0.186175 0.30488,0.191811 0.006,0.47483 -0.32179,0.30437 -0.31189,0.348779 0.11298,0.509077 0.37124,0.140058 0.37175,0.141766 0.14536,0.460654 -0.12827,0.180794 -0.16918,0.256118 -0.16918,0.31197 0,0.104446 0.0544,0.131091 0.37926,0.185662 0.27372,0.04612 0.33469,0.07319 0.33469,0.148684 0,0.01554 -0.0502,0.137667 -0.11162,0.271319 -0.19096,0.415904 -0.16918,0.450492 0.28277,0.450492 0.42094,0 0.40975,-0.01281 0.31905,0.366712 -0.0683,0.286094 -0.0694,0.340922 -0.008,0.402667 0.0473,0.04748 0.13664,0.04219 0.41591,-0.02468 0.21341,-0.0509 0.25082,-0.0544 0.30027,-0.02801 l 0.0565,0.03023 -0.0152,0.306931 c -0.0152,0.306847 -0.0151,0.307018 0.0406,0.362785 0.0306,0.03066 0.0755,0.05568 0.0995,0.05568 0.0241,0 0.16252,-0.05389 0.30779,-0.119903 0.36039,-0.163629 0.35817,-0.164995 0.4247,0.234853 0.0527,0.316924 0.0834,0.375766 0.19591,0.375766 0.0279,0 0.15628,-0.07515 0.28524,-0.167216 0.22665,-0.161664 0.28541,-0.187029 0.34578,-0.148598 0.0155,0.0098 0.076,0.14262 0.13426,0.295061 0.0857,0.224178 0.117,0.282592 0.16474,0.305395 0.0907,0.04347 0.14688,0.0085 0.36022,-0.223752 0.25757,-0.280628 0.26816,-0.279261 0.47842,0.06149 0.23228,0.376278 0.29241,0.375424 0.53051,-0.0076 0.20513,-0.32999 0.20274,-0.32982 0.48004,-0.04014 0.18421,0.192153 0.22341,0.222897 0.28549,0.222897 0.0396,0 0.087,-0.01494 0.10505,-0.03314 0.0183,-0.01819 0.0786,-0.152527 0.13391,-0.298563 0.0554,-0.146036 0.11281,-0.273284 0.12767,-0.282678 0.0587,-0.03724 0.11939,-0.0111 0.3457,0.149623 0.13323,0.09463 0.2586,0.167301 0.2884,0.167301 0.11068,0 0.15065,-0.07857 0.1966,-0.387209 0.0393,-0.263207 0.0473,-0.288485 0.0991,-0.314703 0.0509,-0.02579 0.0815,-0.01708 0.32026,0.09138 0.14526,0.06576 0.28379,0.119732 0.30778,0.119732 0.0241,0 0.0697,-0.02579 0.10112,-0.05739 l 0.0574,-0.05722 -0.0157,-0.294463 c -0.0151,-0.281055 -0.0137,-0.296171 0.0311,-0.336737 0.0461,-0.04168 0.0509,-0.04151 0.30873,0.01742 0.31222,0.07131 0.37047,0.07319 0.42914,0.01452 0.0573,-0.0573 0.0567,-0.06986 -0.0217,-0.400617 -0.088,-0.371068 -0.0998,-0.357831 0.32281,-0.357831 0.28815,0 0.32026,-0.0041 0.35698,-0.04458 0.0613,-0.06772 0.0467,-0.145353 -0.0765,-0.408133 -0.0623,-0.132371 -0.11273,-0.252787 -0.1123,-0.267732 0.002,-0.07806 0.0635,-0.104788 0.34715,-0.150904 0.17362,-0.0281 0.30344,-0.06072 0.327,-0.08199 0.0788,-0.07114 0.0499,-0.163799 -0.13006,-0.416159 -0.22563,-0.316241 -0.22461,-0.31923 0.13656,-0.45237 0.43247,-0.159359 0.44485,-0.212479 0.12118,-0.520094 -0.29976,-0.284812 -0.29993,-0.283275 0.0284,-0.484822 0.39694,-0.24365 0.39754,-0.298563 0.007,-0.541016 -0.33588,-0.208379 -0.33563,-0.205476 -0.0346,-0.491313 0.32282,-0.306847 0.31411,-0.346985 -0.11059,-0.509418 -0.37474,-0.143389 -0.37594,-0.14689 -0.14817,-0.459459 0.13562,-0.186174 0.16926,-0.247919 0.16926,-0.311714 0,-0.111534 -0.05,-0.136471 -0.37884,-0.189591 -0.27465,-0.04441 -0.33511,-0.07131 -0.33511,-0.149452 0,-0.01486 0.0502,-0.134421 0.11162,-0.265854 0.12007,-0.257315 0.13698,-0.360395 0.069,-0.421883 -0.0366,-0.03305 -0.0854,-0.03783 -0.34733,-0.03348 -0.27397,0.0046 -0.30898,6.78e-4 -0.34699,-0.03749 -0.0415,-0.04168 -0.041,-0.04757 0.0237,-0.318119 0.0795,-0.331442 0.0798,-0.33947 0.0145,-0.400873 -0.0663,-0.06234 -0.10777,-0.06132 -0.41214,0.01033 -0.22179,0.05227 -0.25851,0.05577 -0.3089,0.02878 l -0.0572,-0.03074 0.0158,-0.305907 0.0159,-0.3058217 -0.0572,-0.05722 c -0.0315,-0.03151 -0.0761,-0.05722 -0.0993,-0.05722 -0.0231,0 -0.1609,0.05466 -0.30599,0.12144 -0.24237,0.111534 -0.26842,0.118964 -0.32085,0.09155 -0.0523,-0.02733 -0.061,-0.0544 -0.10565,-0.327002 -0.0515,-0.3153857 -0.0834,-0.3767897 -0.19539,-0.3767897 -0.0266,0 -0.15825,0.079 -0.29259,0.1755 -0.22068,0.158504 -0.25022,0.173535 -0.30522,0.15432 -0.0455,-0.01588 -0.072,-0.05039 -0.10428,-0.136557 -0.0239,-0.06337 -0.0698,-0.185491 -0.10197,-0.271319 -0.0651,-0.1731937 -0.10137,-0.2119657 -0.19881,-0.2119657 -0.0544,0 -0.10359,0.03911 -0.28012,0.2223847 -0.27747,0.288229 -0.27849,0.288143 -0.48251,-0.04654 -0.0816,-0.1337377 -0.16679,-0.2531287 -0.18942,-0.2652557 -0.051,-0.02741 -0.11103,-0.02733 -0.158,1.71e-4 m 0.25279,1.0075624 c 0.24169,0.171998 0.11325,0.5764577 -0.1831,0.5764577 -0.28763,0 -0.43247,-0.3464727 -0.22708,-0.5431517 0.11589,-0.111021 0.28208,-0.1246 0.41027,-0.03331 m -0.30386,1.0681117 c 0.15842,0.06021 0.22341,0.02408 0.58517,-0.324524 l 0.27175,-0.262182 0.11503,0.01537 c 0.36082,0.04782 1.07836,0.362955 1.49068,0.654685 0.37884,0.26816 0.88236,0.814215 1.09697,1.189639 l 0.0459,0.08045 -0.20326,0.458092 c -0.11187,0.251933 -0.20342,0.48448 -0.20342,0.516933 0,0.07498 0.0492,0.193604 0.0965,0.232804 0.02,0.01665 0.20983,0.108032 0.4218,0.203083 l 0.38516,0.172938 0.0152,0.09804 c 0.0196,0.127675 0.0222,0.441268 0.004,0.530342 l -0.0139,0.06969 h -0.21991 c -0.25509,0 -0.23536,-0.0228 -0.2492,0.290022 -0.0101,0.226826 -0.0649,0.352195 -0.1895,0.433411 -0.20309,0.132458 -0.53846,0.10846 -0.68065,-0.04876 -0.0219,-0.02417 -0.0643,-0.145523 -0.0944,-0.269868 -0.088,-0.363211 -0.20608,-0.567063 -0.44349,-0.765536 -0.075,-0.0626 -0.13622,-0.121098 -0.13622,-0.12998 0,-0.0087 0.0824,-0.07814 0.18319,-0.153978 0.36705,-0.2767 0.57816,-0.598833 0.60122,-0.917807 0.0443,-0.608569 -0.4405,-1.175718 -1.16162,-1.359586 -0.17098,-0.04355 -0.244,-0.04492 -2.35912,-0.04492 -1.20049,0 -2.18277,-0.0079 -2.18277,-0.01742 0,-0.02246 0.26679,-0.281397 0.42393,-0.411292 0.43161,-0.356806 0.99219,-0.63752 1.57283,-0.787484 l 0.20069,-0.05201 0.28533,0.289254 c 0.15697,0.159103 0.31086,0.298819 0.34177,0.310604 m -3.59223,1.861063 c 0.13144,0.08608 0.18532,0.30232 0.10761,0.4323 -0.11999,0.201205 -0.4241,0.20966 -0.54426,0.0152 -0.17473,-0.282593 0.16183,-0.627613 0.43665,-0.447502 m 7.7435,0.01102 c 0.34382,0.20966 0.0774,0.725398 -0.29071,0.562538 -0.2457,-0.108716 -0.25364,-0.444599 -0.0132,-0.567149 0.10026,-0.05124 0.21547,-0.04936 0.30403,0.0046 m -6.73047,1.283663 v 1.282726 h -1.13413 l -0.0449,-0.195142 c -0.0885,-0.384305 -0.12571,-0.781933 -0.10342,-1.107567 l 0.0156,-0.22879 0.38985,-0.174816 c 0.24459,-0.10957 0.4019,-0.193178 0.42214,-0.224178 0.0887,-0.135276 0.0803,-0.231865 -0.0442,-0.506686 l -0.0581,-0.128272 h 0.55707 v 1.282725 m 3.26481,-1.226958 c 0.24279,0.0632 0.37106,0.191725 0.3714,0.371922 1.7e-4,0.132286 -0.0653,0.215211 -0.22802,0.288656 -0.11512,0.05209 -0.13339,0.05337 -0.85939,0.06046 l -0.74179,0.0072 v -0.76178 h 0.66459 c 0.51906,0 0.69277,0.0073 0.79321,0.03356 m -0.25057,1.840737 c 0.12041,0.03348 0.26269,0.138008 0.33562,0.246638 0.0767,0.114181 0.12153,0.262694 0.22777,0.754605 0.0897,0.415818 0.14749,0.551691 0.30915,0.728643 0.20027,0.219139 0.15372,0.210599 1.15411,0.210599 0.4791,0 0.87092,0.0077 0.87092,0.01708 0,0.01682 -0.3299,0.406851 -0.34416,0.406851 -0.004,0 -0.17644,-0.03604 -0.38294,-0.08019 -0.58321,-0.124515 -0.60421,-0.109912 -0.73804,0.51514 l -0.0861,0.401556 -0.0777,0.03826 c -0.12964,0.06405 -0.55109,0.195739 -0.76946,0.240745 -0.36108,0.0743 -0.75392,0.09932 -1.0992,0.0702 -0.58867,-0.04996 -1.36813,-0.278322 -1.39862,-0.409925 -0.006,-0.02793 -0.0457,-0.208635 -0.0869,-0.401727 -0.0414,-0.193007 -0.0917,-0.376107 -0.11188,-0.406852 -0.0965,-0.147231 -0.19796,-0.156284 -0.64452,-0.05756 -0.1691,0.03749 -0.31667,0.06798 -0.32794,0.06798 -0.0212,0 -0.33503,-0.362869 -0.33503,-0.387294 0,-0.0077 0.74538,-0.01657 1.65644,-0.01964 l 1.65636,-0.0056 0.006,-0.588415 c 0.004,-0.415476 -0.002,-0.597552 -0.0196,-0.619158 -0.0201,-0.02425 -0.12691,-0.03057 -0.51344,-0.03057 h -0.48806 v -0.713954 l 0.56339,8.5e-5 c 0.30966,1.71e-4 0.59951,0.01025 0.64384,0.02255 m -2.5523,2.675871 c 0.26338,0.160555 0.13707,0.58107 -0.17448,0.580728 -0.3194,-8.5e-5 -0.43785,-0.416843 -0.16567,-0.582948 0.0901,-0.05491 0.24834,-0.0538 0.34015,0.0022 m 4.82346,0.01759 c 0.12912,0.09462 0.17208,0.291474 0.0921,0.422651 -0.21008,0.344593 -0.73547,0.07071 -0.55997,-0.291901 0.0862,-0.178062 0.31556,-0.242284 0.46783,-0.13075"
       id="path1-06"
       style="stroke-width:0.0854011;fill:#1a1a19;fill-opacity:1" /><text
       xml:space="preserve"
       style="font-style:normal;font-variant:normal;font-weight:bold;font-stretch:normal;font-size:7.60927px;font-family:Calibri;-inkscape-font-specification:'Calibri, Bold';font-variant-ligatures:normal;font-variant-caps:normal;font-variant-numeric:normal;font-variant-east-asian:normal;text-align:start;writing-mode:lr-tb;direction:ltr;text-anchor:start;fill:#1a1a19;fill-opacity:1;stroke:none;stroke-width:1.19273;stroke-linecap:round;stroke-dasharray:none;stroke-opacity:1;paint-order:stroke fill markers"
       x="183.00401"
       y="28.97097"
       id="text21"><tspan
         sodipodi:role="line"
         id="tspan21"
         style="font-style:normal;font-variant:normal;font-weight:normal;font-stretch:normal;font-size:7.60927px;font-family:Calibri;-inkscape-font-specification:'Calibri, Normal';font-variant-ligatures:normal;font-variant-caps:normal;font-variant-numeric:normal;font-variant-east-asian:normal;stroke:none;stroke-width:1.19273"
         x="183.00401"
         y="28.97097">DH<tspan
   style="font-style:normal;font-variant:normal;font-weight:300;font-stretch:normal;font-size:7.60927px;font-family:Calibri;-inkscape-font-specification:'Calibri, Light';font-variant-ligatures:normal;font-variant-caps:normal;font-variant-numeric:normal;font-variant-east-asian:normal;stroke-width:1.19273"
   id="tspan23">BW</tspan></tspan></text><rect
       style="font-variation-settings:'wdth' 75, 'wght' 300;fill:url(#linearGradient4);stroke-width:0.297716;stroke-linecap:round;paint-order:stroke fill markers"
       id="rect3"
       width="210"
       height="33.685349"
       x="1.0658141e-14"
       y="0"
       inkscape:transform-center-x="10.221754"
       inkscape:transform-center-y="-103.35277" /><path
       id="path24"
       style="fill:#1a1a19;fill-opacity:1;stroke-width:2.9941;stroke-linecap:round;stroke-linejoin:round;paint-order:fill markers stroke"
       d="m 15.07336,8.0011175 c -6.8347372,0 -5.8557613,7.2581425 -5.8557613,7.2581425 0,0 -0.7707754,-0.02165 -0.7854164,0.377531 -0.01866,0.506109 0.8382204,0.369985 0.8382204,0.369985 v 13.698168 h 7.6722233 c 0.07553,0 0,-1.661166 0,-1.661166 h -3.926729 l 0.02315,-0.6599 h 5.926919 V 25.087956 H 17.0116 c 0,0 -0.720826,-1.04e-4 -0.720826,-0.934538 0,-0.934436 0.833,-0.848086 0.833,-0.848086 h 1.78205 v -0.868391 c 0,0 1.8e-5,-0.0077 -0.283145,-0.01148 -0.28318,-0.0038 -0.770149,-0.207682 -0.770149,-0.838221 0,-0.630541 0.536075,-0.943822 0.739971,-0.943822 0.203894,0 0.362538,-0.01148 0.366307,0.339622 0.0036,0.351137 -0.177628,0.294556 -0.177628,0.294556 0,0 -0.313324,-0.0075 -0.313324,0.271929 -0.0072,0.245415 0.392611,0.218936 0.392611,0.218936 h 2.193229 v -5.672529 c 0,0 0.731466,0.09612 0.731466,-0.395128 0,-0.491254 -0.752943,-0.501888 -0.752943,-0.501888 0,0 0.854333,-7.1764282 -5.959016,-7.1977994 z m -0.08881,0.4260723 c 0.436927,-0.00268 1.835374,0.2692073 1.850894,0.4709437 0.01614,0.2082435 -0.24021,0.1922482 -0.24021,0.1922482 0,0 -0.800902,-0.021367 -1.019831,0.053377 -0.21893,0.07476 -0.432657,0.2990062 -0.432657,0.2990062 l -0.208097,-0.0054 -0.635529,-0.603233 H 14.032212 V 8.5778985 c 0,0 0.528612,-0.1283223 0.913076,-0.1496912 0.01256,-7.415e-4 0.02512,-7.415e-4 0.03929,-0.00115 z m -1.743941,0.6264426 c 0.01615,0.00114 0.03374,0.00342 0.05275,0.00772 0.30516,0.067802 0.07088,0.3635985 0.35102,0.5024695 0.280077,0.138854 0.373825,-0.2266125 0.612528,-0.02474 0.238684,0.201854 -0.106038,0.3549557 0.07733,0.6080691 0.183441,0.253106 0.436157,-0.02684 0.553713,0.262838 0.117521,0.289662 -0.258905,0.264848 -0.214103,0.57422 0.04486,0.309379 0.398782,0.178992 0.368244,0.490092 -0.0305,0.31111 -0.352347,0.114291 -0.45643,0.409054 -0.104065,0.29476 0.26985,0.343692 0.09832,0.604978 -0.171707,0.261283 -0.364997,-0.06255 -0.594155,0.150085 -0.229138,0.212628 0.07912,0.429772 -0.194169,0.581378 -0.273385,0.151611 -0.29418,-0.22509 -0.595895,-0.143304 -0.301715,0.08178 -0.129542,0.417524 -0.442112,0.424717 -0.312534,0.0072 -0.155917,-0.336219 -0.461095,-0.404024 -0.30516,-0.0678 -0.30866,0.309448 -0.588719,0.170576 -0.280059,-0.138855 0.01812,-0.369854 -0.220491,-0.571709 -0.238684,-0.201853 -0.417263,0.130493 -0.600721,-0.122616 -0.183441,-0.253116 0.188159,-0.319185 0.07069,-0.608848 -0.11752,-0.289661 -0.430198,-0.07841 -0.475,-0.387777 -0.04486,-0.309378 0.314885,-0.195229 0.345422,-0.506338 0.0305,-0.31111 -0.34431,-0.269018 -0.240209,-0.563779 0.104064,-0.294762 0.369338,-0.02668 0.540955,-0.287982 0.171527,-0.2612844 -0.179835,-0.3983431 0.04934,-0.6109701 0.229139,-0.212618 0.339519,0.14813 0.612905,-0.0034 0.273366,-0.151611 0.02584,-0.4363525 0.327623,-0.5181328 0.301715,-0.08178 0.231723,0.2889898 0.544239,0.2817898 0.292996,-0.0068 0.23506,-0.329794 0.478104,-0.314283 z m 3.137808,0.3419415 c 0.01615,7.41e-4 0.03516,0.0043 0.05669,0.01059 0.172604,0.05053 0.0811,0.162053 0.221245,0.274832 0.140307,0.112784 0.229444,-7.42e-4 0.315835,0.157047 0.0863,0.1578557 -0.05724,0.1719411 -0.03786,0.3508401 0.01938,0.178902 0.162914,0.161695 0.112317,0.334397 -0.0506,0.172712 -0.162014,0.08103 -0.274816,0.221258 -0.112857,0.140217 5.71e-4,0.229639 -0.157173,0.316027 -0.157892,0.08639 -0.171886,-0.05752 -0.350842,-0.03811 -0.178883,0.01938 -0.161658,0.162896 -0.334405,0.112371 -0.172604,-0.05054 -0.0811,-0.162053 -0.221245,-0.274828 -0.140128,-0.112785 -0.229444,7.41e-4 -0.315835,-0.157245 -0.08648,-0.157855 0.05724,-0.171742 0.03786,-0.350644 -0.01938,-0.178901 -0.162914,-0.161892 -0.112317,-0.334592 0.0506,-0.1727121 0.162197,-0.08104 0.275017,-0.2212581 0.112856,-0.140218 -7.99e-4,-0.229441 0.156994,-0.315832 0.15789,-0.08639 0.171886,0.05729 0.35084,0.03791 0.156456,-0.01704 0.162915,-0.12895 0.277727,-0.122814 z m 1.455574,0.36573 c 0.02476,-7.41e-4 0.04127,7.42e-4 0.04127,7.42e-4 h 0.808061 l 0.728558,0.7287551 v 0.339815 h -1.642405 c -0.158608,0 -0.173681,-0.230346 -0.173681,-0.230346 V 9.9999356 c 0,0 -0.0036,0.0056 0.0036,-0.08878 0.01076,-0.1275147 0.160043,-0.1476097 0.234395,-0.1496917 z M 12.82284,9.9500676 c -0.250957,0 -0.533994,0.1146864 -0.533994,0.1146864 0,0 -0.02207,0.112874 0.05974,0.222997 0.08182,0.110129 0.267285,0.217579 0.458189,0.217579 0.190886,0 0.403016,-0.135445 0.492799,-0.24156 0.08971,-0.106128 0.05705,-0.182963 0.05705,-0.182963 0,0 -0.28284,-0.1307454 -0.533814,-0.1307454 z m 3.361586,0.1139144 a 0.2265412,0.2265412 0 0 0 -0.226662,0.226674 0.2265412,0.2265412 0 0 0 0.226662,0.226478 0.2265412,0.2265412 0 0 0 0.226485,-0.226478 0.2265412,0.2265412 0 0 0 -0.226485,-0.226674 z m -4.350844,0.289916 c -0.0018,-1.7e-5 -0.0036,1.94e-4 -0.0036,1.94e-4 0,0 -0.211037,0.229488 -0.287793,0.468428 -0.07679,0.238938 -0.054,0.543474 -0.054,0.543474 0,0 0.100476,0.05538 0.230341,0.01131 0.129904,-0.04417 0.28898,-0.187859 0.347363,-0.369601 0.05831,-0.181749 -0.0054,-0.425355 -0.07931,-0.543278 -0.0644,-0.103205 -0.135992,-0.110292 -0.153038,-0.110435 z m 2.000782,0.06692 c 0,0 -0.114291,0.01202 -0.195533,0.122617 -0.08128,0.110524 -0.129363,0.319621 -0.07338,0.502083 0.05616,0.182464 0.248157,0.345342 0.375996,0.399964 0.127748,0.05456 0.19146,7.41e-4 0.19146,7.41e-4 0,0 0.04181,-0.30881 -0.03193,-0.548693 -0.07374,-0.239877 -0.266692,-0.476744 -0.266692,-0.476744 z m -1.040913,0.575771 a 0.25096246,0.25096246 0 0 0 -0.251047,0.251041 0.25096246,0.25096246 0 0 0 0.251047,0.250845 0.25096246,0.25096246 0 0 0 0.250849,-0.250845 0.25096246,0.25096246 0 0 0 -0.250849,-0.251041 z m 5.9161,0.309448 h 1.155402 c 0,0 0.286912,0.4116 0.369985,0.808051 0.08307,0.396448 0.07554,0.611746 0.07554,0.611746 h -0.460701 c 0,0 -0.147125,-0.354945 -0.494539,-0.743842 -0.347363,-0.388891 -0.653331,-0.445602 -0.653331,-0.445602 z m -2.358782,0.06596 c 0.295291,-0.02313 0.230359,0.370693 0.586797,0.37385 0.380212,0.0034 0.288815,-0.446337 0.657186,-0.352193 0.368369,0.09416 0.07231,0.444754 0.407501,0.624318 0.335141,0.179594 0.462961,-0.260933 0.745389,-0.0065 0.282427,0.25456 -0.14264,0.427351 0.07069,0.742099 0.213296,0.314726 0.53141,-0.01579 0.663178,0.340783 0.131874,0.35665 -0.324771,0.312053 -0.282176,0.689879 0.04252,0.377807 0.477655,0.232781 0.428584,0.60981 -0.04898,0.377033 -0.432478,0.125308 -0.570346,0.479644 -0.08074,0.20757 0.03965,0.319112 0.110703,0.43826 h -1.943152 c -0.0036,-0.0075 -0.0054,-0.01489 -0.01076,-0.02265 -0.0802,-0.146268 -0.285998,-0.306379 -0.515998,-0.33808 -0.143717,-0.01979 -0.306417,0.02257 -0.438847,0.0849 -0.07948,0.03736 -0.148203,0.08198 -0.195336,0.124358 -0.06513,0.05847 -0.08899,0.112569 -0.09725,0.151431 h -1.343204 c 0.06549,-0.134153 0.226161,-0.243465 0.140666,-0.475003 -0.131874,-0.356651 -0.51964,-0.111493 -0.562234,-0.48932 -0.04252,-0.3778 0.389972,-0.225433 0.439026,-0.602458 0.04916,-0.377038 -0.408237,-0.340375 -0.27037,-0.694716 0.137795,-0.354379 0.450132,-0.01834 0.668793,-0.32937 0.218662,-0.311045 -0.203392,-0.49125 0.08343,-0.74094 0.286733,-0.249658 0.407017,0.193327 0.745191,0.01954 0.317019,-0.162933 0.08235,-0.485738 0.356438,-0.597819 0.0183,-0.0075 0.03876,-0.014 0.0619,-0.01954 0.02315,-0.0056 0.04432,-0.009 0.06405,-0.01041 z m -4.388578,0.382556 c -0.07213,-7.41e-4 -0.139051,0.0074 -0.189146,0.02185 -0.13367,0.03841 -0.148921,0.120303 -0.148921,0.120303 0,0 0.162915,0.266037 0.371548,0.40538 0.208721,0.13934 0.507691,0.200947 0.507691,0.200947 0,0 0.0811,-0.08155 0.07428,-0.218549 -0.0072,-0.136989 -0.101553,-0.329367 -0.260323,-0.43536 -0.09922,-0.06625 -0.234773,-0.09314 -0.355093,-0.09457 z m 1.639302,0.04428 c -0.08002,-1.62e-4 -0.163991,0.01417 -0.240406,0.04778 -0.174757,0.07681 -0.314616,0.286226 -0.354124,0.419497 -0.03947,0.133276 0.02153,0.190312 0.02153,0.190312 0,0 0.311781,0.0059 0.54153,-0.09497 0.229767,-0.100961 0.442525,-0.319894 0.442525,-0.319894 v -1.92e-4 c 0,0 -0.02512,-0.112139 -0.144255,-0.180063 -0.0671,-0.0382 -0.163812,-0.06226 -0.266711,-0.06247 z m -3.554985,0.366505 v 1.96e-4 c 0.08361,-0.0038 0.138334,0.05826 0.375403,0.571517 0.252966,0.547472 1.359332,1.129058 1.44996,1.13471 0.09061,0.0056 0.252966,0.09612 0.252966,0.269803 0,0.17368 -0.249288,0.135966 -0.249288,0.135966 h -1.834855 c 0,0 -0.06441,1.28e-4 -0.1965016,-0.01131 -0.132054,-0.01131 -0.09061,-0.468166 -0.06782,-1.042069 0.02261,-0.573906 0.15484,-1.061132 0.2529656,-1.057351 0.0054,-7.42e-4 0.01076,-0.0011 0.01794,-0.0015 z m 6.850635,0.299009 c 0,0 -0.378903,0.0072 -0.653525,0.140415 -0.274622,0.133238 -0.523552,0.409054 -0.523552,0.409054 0,0 0.03607,0.135068 0.183925,0.212166 0.148023,0.07711 0.407896,0.09631 0.61678,-0.005 0.208882,-0.101355 0.369087,-0.362279 0.410983,-0.526064 0.0418,-0.163793 -0.03463,-0.230538 -0.03463,-0.230538 z m 0.703224,0.118561 c 0,0 -0.118597,0.07401 -0.14874,0.238081 -0.03015,0.164062 0.02799,0.418467 0.186257,0.588342 0.15825,0.169876 0.455049,0.245972 0.62392,0.23789 0.168836,-0.0083 0.209851,-0.100764 0.209851,-0.100764 0,0 -0.118238,-0.360165 -0.326277,-0.583506 -0.208075,-0.223329 -0.545011,-0.380038 -0.545011,-0.380037 z m -2.151837,0.975926 c -0.03857,-0.0011 -0.06388,0.0088 -0.07302,0.01309 v 1.94e-4 c -0.0018,0.0011 -0.0036,0.0018 -0.0036,0.0018 0,0 -0.109089,0.363106 -0.06621,0.665317 0.04288,0.302209 0.229373,0.623351 0.229373,0.623351 0,0 0.13941,0.0072 0.258008,-0.110039 0.118599,-0.117272 0.216545,-0.358861 0.183927,-0.58873 -0.03266,-0.229885 -0.232065,-0.462401 -0.375207,-0.552368 -0.06262,-0.03938 -0.114471,-0.05164 -0.153046,-0.0528 z m 1.43372,0.176587 a 0.30523961,0.30523961 0 0 0 -0.115188,0.03016 0.30523961,0.30523961 0 0 0 -0.141384,0.407895 0.30523961,0.30523961 0 0 0 0.407897,0.141186 0.30523961,0.30523961 0 0 0 0.141384,-0.407509 0.30523961,0.30523961 0 0 0 -0.292619,-0.171742 z m 1.51997,0.405765 c -0.09366,-0.0062 -0.212167,0.01889 -0.324915,0.07329 -0.08774,0.04233 -0.171886,0.102504 -0.237697,0.179868 -0.150535,0.176838 -0.192322,0.480143 -0.164709,0.646944 0.02763,0.166754 0.124339,0.196886 0.124339,0.196886 0,0 0.344489,-0.159003 0.542302,-0.391455 0.197829,-0.232462 0.314292,-0.584857 0.314292,-0.584857 v -1.95e-4 c 0,0 -0.08702,-0.109411 -0.253559,-0.120481 z m -8.376597,0.380818 h 3.730209 v 0.759891 l -3.7832096,0.0075 c 0,0 -0.339806,-0.02261 -0.339806,-0.392615 0,-0.370016 0.3928066,-0.374823 0.3928066,-0.374823 z m 4.358974,1.921104 h 5.131453 v 0.635337 l -0.550052,0.01059 -0.224349,0.464561 h 0.432657 v 0.656806 l -3.855354,0.01597 0.01076,-0.630118 2.627035,-0.0054 0.197472,-0.496472 -4.23424,-0.0054 c 0,0 0.01076,-0.05332 0.01615,-0.363024 0.0054,-0.309682 0.4485,-0.282949 0.4485,-0.282949 z m 2.747911,7.469911 c -0.0445,3.73e-4 -0.222214,0.01722 -0.222214,0.248529 0,0.264314 0.178883,0.299003 0.178883,0.299003 l 1.807367,0.0026 v -0.549852 h -1.753989 c 0,0 -0.0036,-2.69e-4 -0.01076,-1.96e-4 z" /><path
       d="m 50.80776,9.9858666 v 9.0429794 h 1.614707 V 14.61633 l 1.8126,4.412516 h 1.560278 v -9.027963 h -1.614353 v 4.687535 L 52.369388,9.9872046 Z m 22.685369,0.0063 v 9.0256414 h 4.895797 v -4.7683 h -2.242802 v 1.614688 h 0.628121 v 1.538924 h -1.666421 v -5.796249 h 1.694127 v 0.664836 H 78.41664 V 9.9921826 Z m 7.164974,0.009 v 9.027964 h 1.614691 v -2.226474 h 1.63202 v 2.226454 h 1.614691 v -9.027979 z m -44.83708,0.015 -0.01268,4.937178 h -0.0025 v 0.749272 0.05807 l -0.0025,0.807345 h 0.0025 v 1.656403 0.804675 h 1.614728 v -0.804673 -0.699542 l 1.233863,1.504217 h 2.088954 l -2.018508,-2.46108 h 1.92373 V 10.01606 Z m 7.394239,0.0087 v 8.949878 h 4.968881 v -8.94984 h -1.614686 v 7.335176 h -1.739485 v -7.335176 z m 26.66636,0 v 9.004285 h 1.614672 v -9.004286 z m -40.264353,3.36e-4 -0.0099,3.694623 h -0.0025 v 0.807339 l -0.0099,4.501967 h 4.896787 v -3.69462 l -0.683506,-0.807347 0.683506,-0.807339 v -3.694621 z m 34.037573,0 1.476508,8.987568 1.587963,0.0277 1.807274,-9.015275 h -1.646715 l -0.873093,4.355447 -0.715553,-4.355444 z m -6.148695,0.0025 v 5.415108 h 3.243063 v 1.971792 h -3.235721 v 1.614689 h 4.850068 v -5.20082 h -3.243063 v -2.185806 h 3.231695 v -1.614684 z m 24.766647,1.588319 h 1.63202 v 3.572137 h -1.63202 z m -44.842409,0.015 h 1.603326 v 3.322487 h -1.61067 z m -6.202432,0.009 h 1.648722 v 2.079939 h -1.653732 z m -0.0075,3.694627 h 1.65741 v 2.079932 h -1.662419 z"
       id="path1"
       style="fill:#1a1a19;fill-opacity:1;stroke-width:0.645846" /><text
       xml:space="preserve"
       style="font-style:normal;font-variant:normal;font-weight:normal;font-stretch:normal;font-size:6.37965px;font-family:Arial;-inkscape-font-specification:'Arial, @wght=300,wdth=75';font-variant-ligatures:normal;font-variant-caps:normal;font-variant-numeric:normal;font-variant-east-asian:normal;font-variation-settings:'wdth' 75, 'wght' 300;text-align:start;writing-mode:lr-tb;direction:ltr;text-anchor:start;fill:#1a1a19;fill-opacity:1;stroke-width:0.146182;stroke-linecap:round;paint-order:stroke fill markers"
       x="29.379961"
       y="25.680435"
       id="text1"><tspan
         sodipodi:role="line"
         id="tspan1"
         style="font-style:normal;font-variant:normal;font-weight:normal;font-stretch:normal;font-size:6.37965px;font-family:Arial;-inkscape-font-specification:'Arial, @wght=300,wdth=75';font-variant-ligatures:normal;font-variant-caps:normal;font-variant-numeric:normal;font-variant-east-asian:normal;font-variation-settings:'wdth' 75, 'wght' 300;fill:#1a1a19;fill-opacity:1;stroke-width:0.146181"
         x="29.379961"
         y="25.680435">BRAINS OF STEEL</tspan></text><rect
       style="fill:#889e73;fill-opacity:1;stroke-width:0.273807;stroke-linecap:round;paint-order:stroke fill markers"
       id="rect9"
       width="210"
       height="2.9598298"
       x="1.0728836e-06"
       y="0" /><g
       id="text3"
       style="font-size:4.03531px;font-family:'Cambria Math';-inkscape-font-specification:'Cambria Math, Normal';stroke-width:0.571934;stroke-linecap:round;stroke-linejoin:round;stroke-dasharray:0.571934, 1.7158;stroke-opacity:0.972549;paint-order:stroke fill markers"
       transform="rotate(39.494054)"
       aria-label="At voluptas delectus voluptatem impedit&#10;architecto voluptatibus molestias. Quidem&#10;iusto quaerat ducimus quia ducimus harum&#10;um recusandae nam accusantium ad suscipit." /><text
       xml:space="preserve"
       style="font-size:7.05556px;font-family:'Cambria Math';-inkscape-font-specification:'Cambria Math, Normal';text-align:start;writing-mode:lr-tb;direction:ltr;text-anchor:start;fill:#c73b00;fill-opacity:0.769184;stroke-width:1;stroke-linecap:round;stroke-linejoin:round;stroke-dasharray:1, 3;stroke-opacity:0.972549;paint-order:stroke fill markers"
       x="74.347916"
       y="-13.361458"
       id="text2"><tspan
         sodipodi:role="line"
         id="tspan2"
         style="stroke-width:1"
         x="74.347916"
         y="-13.361458" /></text></g></svg>
